<?xml version="1.0" encoding="utf-8" ?>
<svg xmlns="http://www.w3.org/2000/svg" xmlns:xlink="http://www.w3.org/1999/xlink" width="800" height="300">
	<path fill="white" d="M150 50L150 50Q152.45486 50 154.90677 50.120453Q157.35867 50.24091 159.80171 50.481529Q162.24475 50.722149 164.67303 51.082352Q167.10132 51.442551 169.50902 51.921471Q171.91672 52.400391 174.29802 52.996872Q176.67932 53.593357 179.02847 54.305965Q181.37762 55.01857 183.68898 55.845589Q186.00034 56.672604 188.26833 57.612038Q190.53632 58.551472 192.75549 59.601063Q194.97467 60.650654 197.13966 61.807873Q199.30466 62.965088 201.41025 64.227135Q203.51587 65.489182 205.55701 66.853035Q207.59814 68.216888 209.5699 69.679245Q211.54167 71.141609 213.43932 72.698959Q215.33694 74.256302 217.15588 75.904884Q218.97481 77.553467 220.71066 79.289314Q222.4465 81.025162 224.09509 82.844101Q225.74368 84.663033 227.30103 86.560669Q228.85837 88.458298 230.32072 90.430061Q231.78308 92.401825 233.14693 94.442963Q234.51077 96.484108 235.77283 98.589714Q237.03488 100.69532 238.19209 102.86032Q239.3493 105.02531 240.3989 107.24448Q241.44847 109.46365 242.38791 111.73164Q243.32733 113.99964 244.15436 116.311Q244.98138 118.62237 245.69402 120.97153Q246.40662 123.32068 247.0031 125.70197Q247.59958 128.08325 248.07849 130.49095Q248.5574 132.89865 248.91762 135.32693Q249.27783 137.75523 249.51848 140.19827Q249.75909 142.64133 249.87953 145.09323Q250 147.54514 250 150L250 150Q250 152.45486 249.87953 154.90677Q249.75909 157.35867 249.51848 159.80171Q249.27785 162.24475 248.91763 164.67303Q248.55743 167.10132 248.07851 169.50902Q247.59958 171.91672 247.00308 174.29802Q246.40662 176.67932 245.694 179.02847Q244.98138 181.37762 244.15437 183.68898Q243.32736 186.00034 242.38792 188.26833Q241.44849 190.53632 240.3989 192.75549Q239.3493 194.97467 238.19209 197.13966Q237.03488 199.30466 235.77281 201.41025Q234.51076 203.51587 233.14691 205.55701Q231.78305 207.59814 230.32071 209.5699Q228.85837 211.54167 227.30103 213.43932Q225.74368 215.33694 224.09508 217.15588Q222.4465 218.97481 220.71065 220.71066Q218.97479 222.4465 217.15587 224.09509Q215.33693 225.74368 213.4393 227.30103Q211.54166 228.85837 209.56989 230.32072Q207.59811 231.78308 205.55698 233.14693Q203.51584 234.51077 201.41025 235.77283Q199.30466 237.03488 197.13966 238.19209Q194.97467 239.3493 192.75549 240.3989Q190.53632 241.44847 188.26831 242.38791Q186.00031 243.32733 183.68896 244.15436Q181.37759 244.98138 179.02846 245.69402Q176.67929 246.40662 174.298 247.0031Q171.91672 247.59958 169.50902 248.07849Q167.10132 248.5574 164.67303 248.91762Q162.24475 249.27783 159.80173 249.51848Q157.35867 249.75909 154.90677 249.87953Q152.45486 250 150 250L150 250Q147.54514 250 145.09323 249.87953Q142.64133 249.75909 140.19829 249.51848Q137.75525 249.27785 135.32693 248.91763Q132.89865 248.55743 130.49095 248.07851Q128.08325 247.59958 125.70197 247.00308Q123.32068 246.40662 120.97152 245.694Q118.62236 244.98138 116.311 244.15437Q113.99964 243.32736 111.73164 242.38792Q109.46365 241.44849 107.24448 240.3989Q105.02531 239.3493 102.86032 238.19209Q100.69533 237.03488 98.589722 235.77281Q96.484116 234.51076 94.44297 233.14691Q92.401825 231.78305 90.430061 230.32071Q88.458298 228.85837 86.560669 227.30103Q84.663033 225.74368 82.844101 224.09508Q81.025162 222.4465 79.289314 220.71065Q77.553467 218.97479 75.904884 217.15587Q74.256302 215.33693 72.698952 213.4393Q71.141602 211.54166 69.679245 209.56989Q68.216881 207.59811 66.853027 205.55698Q65.489182 203.51584 64.227135 201.41025Q62.965084 199.30466 61.807869 197.13966Q60.65065 194.97467 59.601063 192.75549Q58.551472 190.53632 57.612038 188.26831Q56.6726 186.00031 55.845585 183.68896Q55.01857 181.37759 54.305962 179.02846Q53.593353 176.67929 52.996868 174.298Q52.400383 171.91672 51.921467 169.50902Q51.442547 167.10132 51.082344 164.67303Q50.722145 162.24475 50.481529 159.80173Q50.24091 157.35867 50.120453 154.90677Q50 152.45486 50 150L50 150Q50 147.54514 50.120453 145.09323Q50.24091 142.64133 50.481529 140.19829Q50.722145 137.75525 51.082344 135.32693Q51.442543 132.89865 51.921463 130.49095Q52.400383 128.08325 52.996864 125.70197Q53.593349 123.32068 54.305958 120.97152Q55.018566 118.62236 55.845585 116.311Q56.6726 113.99964 57.612038 111.73164Q58.551472 109.46365 59.601063 107.24448Q60.650654 105.02531 61.807873 102.86032Q62.965088 100.69533 64.227135 98.589722Q65.489182 96.484116 66.853035 94.44297Q68.216888 92.401825 69.679245 90.430061Q71.141609 88.458298 72.698959 86.560669Q74.256302 84.663033 75.904884 82.844101Q77.553467 81.025162 79.289314 79.289314Q81.025162 77.553467 82.844101 75.904884Q84.663033 74.256302 86.560669 72.698952Q88.458298 71.141602 90.430061 69.679245Q92.401825 68.216881 94.442963 66.853027Q96.484108 65.489182 98.589714 64.227135Q100.69532 62.965084 102.86032 61.807869Q105.02531 60.65065 107.24448 59.601063Q109.46365 58.551472 111.73164 57.612038Q113.99964 56.672604 116.311 55.845589Q118.62237 55.01857 120.97153 54.305965Q123.32068 53.593357 125.70197 52.996872Q128.08325 52.400391 130.49095 51.921471Q132.89865 51.442551 135.32693 51.082348Q137.75523 50.722149 140.19827 50.481529Q142.64133 50.24091 145.09323 50.120453Q147.54514 50 150 50Z"/>
	<path fill="none" stroke="#FF8A8A" stroke-width="2.5" stroke-linecap="round" stroke-linejoin="round" d="M150 50L150 50Q152.45486 50 154.90677 50.120453Q157.35867 50.24091 159.80171 50.481529Q162.24475 50.722149 164.67303 51.082352Q167.10132 51.442551 169.50902 51.921471Q171.91672 52.400391 174.29802 52.996872Q176.67932 53.593357 179.02847 54.305965Q181.37762 55.01857 183.68898 55.845589Q186.00034 56.672604 188.26833 57.612038Q190.53632 58.551472 192.75549 59.601063Q194.97467 60.650654 197.13966 61.807873Q199.30466 62.965088 201.41025 64.227135Q203.51587 65.489182 205.55701 66.853035Q207.59814 68.216888 209.5699 69.679245Q211.54167 71.141609 213.43932 72.698959Q215.33694 74.256302 217.15588 75.904884Q218.97481 77.553467 220.71066 79.289314Q222.4465 81.025162 224.09509 82.844101Q225.74368 84.663033 227.30103 86.560669Q228.85837 88.458298 230.32072 90.430061Q231.78308 92.401825 233.14693 94.442963Q234.51077 96.484108 235.77283 98.589714Q237.03488 100.69532 238.19209 102.86032Q239.3493 105.02531 240.3989 107.24448Q241.44847 109.46365 242.38791 111.73164Q243.32733 113.99964 244.15436 116.311Q244.98138 118.62237 245.69402 120.97153Q246.40662 123.32068 247.0031 125.70197Q247.59958 128.08325 248.07849 130.49095Q248.5574 132.89865 248.91762 135.32693Q249.27783 137.75523 249.51848 140.19827Q249.75909 142.64133 249.87953 145.09323Q250 147.54514 250 150L250 150Q250 152.45486 249.87953 154.90677Q249.75909 157.35867 249.51848 159.80171Q249.27785 162.24475 248.91763 164.67303Q248.55743 167.10132 248.07851 169.50902Q247.59958 171.91672 247.00308 174.29802Q246.40662 176.67932 245.694 179.02847Q244.98138 181.37762 244.15437 183.68898Q243.32736 186.00034 242.38792 188.26833Q241.44849 190.53632 240.3989 192.75549Q239.3493 194.97467 238.19209 197.13966Q237.03488 199.30466 235.77281 201.41025Q234.51076 203.51587 233.14691 205.55701Q231.78305 207.59814 230.32071 209.5699Q228.85837 211.54167 227.30103 213.43932Q225.74368 215.33694 224.09508 217.15588Q222.4465 218.97481 220.71065 220.71066Q218.97479 222.4465 217.15587 224.09509Q215.33693 225.74368 213.4393 227.30103Q211.54166 228.85837 209.56989 230.32072Q207.59811 231.78308 205.55698 233.14693Q203.51584 234.51077 201.41025 235.77283Q199.30466 237.03488 197.13966 238.19209Q194.97467 239.3493 192.75549 240.3989Q190.53632 241.44847 188.26831 242.38791Q186.00031 243.32733 183.68896 244.15436Q181.37759 244.98138 179.02846 245.69402Q176.67929 246.40662 174.298 247.0031Q171.91672 247.59958 169.50902 248.07849Q167.10132 248.5574 164.67303 248.91762Q162.24475 249.27783 159.80173 249.51848Q157.35867 249.75909 154.90677 249.87953Q152.45486 250 150 250L150 250Q147.54514 250 145.09323 249.87953Q142.64133 249.75909 140.19829 249.51848Q137.75525 249.27785 135.32693 248.91763Q132.89865 248.55743 130.49095 248.07851Q128.08325 247.59958 125.70197 247.00308Q123.32068 246.40662 120.97152 245.694Q118.62236 244.98138 116.311 244.15437Q113.99964 243.32736 111.73164 242.38792Q109.46365 241.44849 107.24448 240.3989Q105.02531 239.3493 102.86032 238.19209Q100.69533 237.03488 98.589722 235.77281Q96.484116 234.51076 94.44297 233.14691Q92.401825 231.78305 90.430061 230.32071Q88.458298 228.85837 86.560669 227.30103Q84.663033 225.74368 82.844101 224.09508Q81.025162 222.4465 79.289314 220.71065Q77.553467 218.97479 75.904884 217.15587Q74.256302 215.33693 72.698952 213.4393Q71.141602 211.54166 69.679245 209.56989Q68.216881 207.59811 66.853027 205.55698Q65.489182 203.51584 64.227135 201.41025Q62.965084 199.30466 61.807869 197.13966Q60.65065 194.97467 59.601063 192.75549Q58.551472 190.53632 57.612038 188.26831Q56.6726 186.00031 55.845585 183.68896Q55.01857 181.37759 54.305962 179.02846Q53.593353 176.67929 52.996868 174.298Q52.400383 171.91672 51.921467 169.50902Q51.442547 167.10132 51.082344 164.67303Q50.722145 162.24475 50.481529 159.80173Q50.24091 157.35867 50.120453 154.90677Q50 152.45486 50 150L50 150Q50 147.54514 50.120453 145.09323Q50.24091 142.64133 50.481529 140.19829Q50.722145 137.75525 51.082344 135.32693Q51.442543 132.89865 51.921463 130.49095Q52.400383 128.08325 52.996864 125.70197Q53.593349 123.32068 54.305958 120.97152Q55.018566 118.62236 55.845585 116.311Q56.6726 113.99964 57.612038 111.73164Q58.551472 109.46365 59.601063 107.24448Q60.650654 105.02531 61.807873 102.86032Q62.965088 100.69533 64.227135 98.589722Q65.489182 96.484116 66.853035 94.44297Q68.216888 92.401825 69.679245 90.430061Q71.141609 88.458298 72.698959 86.560669Q74.256302 84.663033 75.904884 82.844101Q77.553467 81.025162 79.289314 79.289314Q81.025162 77.553467 82.844101 75.904884Q84.663033 74.256302 86.560669 72.698952Q88.458298 71.141602 90.430061 69.679245Q92.401825 68.216881 94.442963 66.853027Q96.484108 65.489182 98.589714 64.227135Q100.69532 62.965084 102.86032 61.807869Q105.02531 60.65065 107.24448 59.601063Q109.46365 58.551472 111.73164 57.612038Q113.99964 56.672604 116.311 55.845589Q118.62237 55.01857 120.97153 54.305965Q123.32068 53.593357 125.70197 52.996872Q128.08325 52.400391 130.49095 51.921471Q132.89865 51.442551 135.32693 51.082348Q137.75523 50.722149 140.19827 50.481529Q142.64133 50.24091 145.09323 50.120453Q147.54514 50 150 50Z"/>
	<path fill="#FF8A8A" d="M285.00488 129.75L285.00488 94.251953L289.30176 94.251953L289.30176 125.55078L307.00195 125.55078L307.00195 129.75L285.00488 129.75ZM321.49899 130.34814Q318.99655 130.34814 316.9946 129.45703Q315.00485 128.55371 313.84518 126.93018Q312.69772 125.29443 312.69772 123.146Q312.69772 119.75244 314.72409 117.88477Q316.75046 116.00488 321.09616 115.15039L329.99509 113.35596Q329.99509 109.9502 328.46921 108.30225Q326.95554 106.6543 324.09909 106.6543Q321.35251 106.6543 319.80222 107.875Q318.25192 109.0957 317.65378 111.40283L313.19821 111.04883Q313.95505 107.30127 316.77487 104.98193Q319.5947 102.65039 324.09909 102.65039Q328.89645 102.65039 331.54538 105.53125Q334.19431 108.3999 334.19431 113.45361L334.19431 124.45215Q334.19431 125.35547 334.59714 125.70947Q334.99997 126.05127 335.80563 126.05127L337.50241 126.05127L337.50241 129.75Q336.69675 129.84766 335.30515 129.84766Q333.09567 129.84766 331.81393 128.95654Q330.5444 128.05322 330.15378 126.00244Q329.10397 127.95557 326.7236 129.15186Q324.35544 130.34814 321.49899 130.34814ZM321.90182 126.64941Q325.95456 126.64941 327.96872 124.59863Q329.99509 122.54785 329.99509 119.25195L329.99509 116.94482L321.90182 118.54395Q319.20407 119.04443 318.15427 120.06982Q317.10446 121.09521 317.10446 122.75537Q317.10446 124.59863 318.37399 125.62402Q319.65573 126.64941 321.90182 126.64941ZM344.1015 129.75L344.1015 125.55078L360.89838 106.94727L344.60199 106.94727L344.60199 103.24854L365.50043 103.24854L365.50043 107.44775L348.70355 126.05127L365.90326 126.05127L365.90326 129.75L344.1015 129.75ZM376.89688 137.24512L376.89688 133.54639L379.94864 133.54639Q381.35245 133.54639 382.02383 133.11914Q382.69522 132.7041 383.04922 131.75195L384.00137 129.24951L382.54874 129.24951L372.69766 103.24854L377.29971 103.24854L385.34415 125.35547L392.9003 103.24854L397.50235 103.24854L386.74796 133.09473Q386.00333 135.25537 384.50186 136.24414Q383.0004 137.24512 380.35147 137.24512L376.89688 137.24512ZM415.09998 130.55566Q410.85193 130.55566 407.89783 128.30957Q404.95593 126.05127 403.43005 121.90088Q401.90417 117.75049 401.90417 112.0498Q401.90417 106.30029 403.43005 102.1499Q404.95593 97.999512 407.89783 95.729004Q410.85193 93.446289 415.09998 93.446289Q419.79968 93.446289 423.09558 96.522461Q426.40369 99.598633 427.50232 105.104L422.90027 105.39697Q422.04578 101.55176 419.97058 99.598633Q417.89539 97.645508 415.09998 97.645508Q410.85193 97.645508 408.61804 101.40527Q406.39636 105.15283 406.39636 112.0498Q406.39636 118.89795 408.61804 122.62109Q410.85193 126.34424 415.09998 126.34424Q418.20056 126.34424 420.349 124.1958Q422.49744 122.04736 423.25427 117.79932L427.79529 118.05566Q426.85535 123.90283 423.49841 127.23535Q420.15369 130.55566 415.09998 130.55566ZM441.49887 130.34814Q438.99643 130.34814 436.99448 129.45703Q435.00473 128.55371 433.84506 126.93018Q432.6976 125.29443 432.6976 123.146Q432.6976 119.75244 434.72397 117.88477Q436.75034 116.00488 441.09604 115.15039L449.99496 113.35596Q449.99496 109.9502 448.46909 108.30225Q446.95541 106.6543 444.09897 106.6543Q441.35239 106.6543 439.80209 107.875Q438.2518 109.0957 437.65366 111.40283L433.19809 111.04883Q433.95493 107.30127 436.77475 104.98193Q439.59457 102.65039 444.09897 102.65039Q448.89633 102.65039 451.54526 105.53125Q454.19418 108.3999 454.19418 113.45361L454.19418 124.45215Q454.19418 125.35547 454.59702 125.70947Q454.99985 126.05127 455.80551 126.05127L457.50229 126.05127L457.50229 129.75Q456.69662 129.84766 455.30502 129.84766Q453.09555 129.84766 451.81381 128.95654Q450.54428 128.05322 450.15366 126.00244Q449.10385 127.95557 446.72348 129.15186Q444.35532 130.34814 441.49887 130.34814ZM441.9017 126.64941Q445.95444 126.64941 447.9686 124.59863Q449.99496 122.54785 449.99496 119.25195L449.99496 116.94482L441.9017 118.54395Q439.20395 119.04443 438.15414 120.06982Q437.10434 121.09521 437.10434 122.75537Q437.10434 124.59863 438.37387 125.62402Q439.65561 126.64941 441.9017 126.64941ZM464.19904 129.75L464.19904 103.24854L468.04425 103.24854L468.15411 107.99707Q469.20392 105.29932 471.52325 103.98096Q473.8548 102.65039 476.60138 102.65039Q479.65314 102.65039 481.6795 104.00537Q483.70587 105.34814 484.75568 107.63086Q485.80548 109.90137 485.80548 112.69678L485.80548 129.75L481.59406 129.75L481.59406 113.90527Q481.59406 110.19434 480.14142 108.27783Q478.70099 106.34912 475.69806 106.34912Q472.6463 106.34912 470.52228 108.27783Q468.39825 110.19434 468.39825 113.90527L468.39825 129.75L464.19904 129.75ZM502.3533 129.75L492.50223 103.24854L497.10428 103.24854L505.00223 125.45312L512.90015 103.24854L517.5022 103.24854L507.65115 129.75L502.3533 129.75ZM531.49878 130.34814Q528.99634 130.34814 526.99438 129.45703Q525.00464 128.55371 523.84497 126.93018Q522.69751 125.29443 522.69751 123.146Q522.69751 119.75244 524.72388 117.88477Q526.75024 116.00488 531.09595 115.15039L539.99487 113.35596Q539.99487 109.9502 538.46899 108.30225Q536.95532 106.6543 534.09888 106.6543Q531.35229 106.6543 529.802 107.875Q528.25171 109.0957 527.65356 111.40283L523.198 111.04883Q523.95483 107.30127 526.77466 104.98193Q529.59448 102.65039 534.09888 102.65039Q538.89624 102.65039 541.54517 105.53125Q544.19409 108.3999 544.19409 113.45361L544.19409 124.45215Q544.19409 125.35547 544.59692 125.70947Q544.99976 126.05127 545.80542 126.05127L547.5022 126.05127L547.5022 129.75Q546.69653 129.84766 545.30493 129.84766Q543.09546 129.84766 541.81372 128.95654Q540.54419 128.05322 540.15356 126.00244Q539.10376 127.95557 536.72339 129.15186Q534.35522 130.34814 531.49878 130.34814ZM531.90161 126.64941Q535.95435 126.64941 537.96851 124.59863Q539.99487 122.54785 539.99487 119.25195L539.99487 116.94482L531.90161 118.54395Q529.20386 119.04443 528.15405 120.06982Q527.10425 121.09521 527.10425 122.75537Q527.10425 124.59863 528.37378 125.62402Q529.65552 126.64941 531.90161 126.64941ZM565.50269 130.34814Q562.0481 130.34814 559.54565 129.15186Q557.05542 127.95557 555.6272 125.9292Q554.19897 123.90283 554.00366 121.40039L558.39819 121.09521Q558.80103 123.54883 560.57104 124.95264Q562.35327 126.34424 565.50269 126.34424Q568.44458 126.34424 570.06812 125.50195Q571.70386 124.64746 571.70386 122.85303Q571.70386 121.70557 571.15454 120.96094Q570.60522 120.2041 569.10376 119.6792Q567.60229 119.1543 564.69702 118.65381Q560.85181 117.9458 558.66675 116.92041Q556.4939 115.89502 555.59058 114.34473Q554.69946 112.79443 554.69946 110.646Q554.69946 107.20361 557.29956 104.93311Q559.89966 102.65039 564.74585 102.65039Q568.05396 102.65039 570.27563 103.82227Q572.49731 104.99414 573.79126 106.92285Q575.09741 108.85156 575.50024 111.14648L571.10571 111.45166Q570.65405 109.35205 569.01831 108.00928Q567.39478 106.6543 564.69702 106.6543Q561.80396 106.6543 560.40015 107.80176Q558.99634 108.94922 558.99634 110.646Q558.99634 112.64795 560.4978 113.50244Q561.99927 114.34473 565.60034 114.95508Q569.7019 115.60205 571.948 116.62744Q574.19409 117.65283 575.09741 119.1543Q576.00073 120.65576 576.00073 122.85303Q576.00073 125.19678 574.62134 126.88135Q573.25415 128.55371 570.87378 129.45703Q568.50562 130.34814 565.50269 130.34814Z"/>
	<path fill="#FF7676" d="M280.65918 169.89999L285.09766 155.70078L286.89941 155.70078L291.33789 169.89999L289.87793 169.89999L288.59863 165.64218L283.39844 165.64218L282.11914 169.89999L280.65918 169.89999ZM286.00098 156.96054L283.7793 164.31894L288.21777 164.31894L286.00098 156.96054ZM310.20114 170.13925Q308.83884 170.13925 307.84763 169.6705Q306.8613 169.20175 306.29977 168.41074Q305.73825 167.61972 305.66013 166.63828L307.04196 166.54062Q307.15915 167.61972 307.9697 168.2496Q308.78024 168.87949 310.20114 168.87949Q311.53903 168.87949 312.25681 168.45956Q312.97946 168.03964 312.97946 167.1998Q312.97946 166.70175 312.74997 166.35995Q312.52048 166.01816 311.8613 165.76913Q311.20212 165.52011 309.87888 165.30038Q308.34079 165.0416 307.49118 164.63144Q306.64157 164.22128 306.30954 163.63046Q305.98239 163.03964 305.98239 162.1998Q305.98239 160.81796 306.99802 159.93906Q308.01852 159.06015 309.89841 159.06015Q311.15817 159.06015 312.03708 159.50937Q312.92087 159.95859 313.42868 160.72031Q313.94138 161.48203 314.09763 162.38046L312.72067 162.49765Q312.55954 161.57968 311.84665 160.9498Q311.13864 160.31992 309.87888 160.31992Q308.61911 160.31992 307.97946 160.84238Q307.33981 161.35995 307.33981 162.1998Q307.33981 162.80038 307.5986 163.16171Q307.86227 163.51816 308.49216 163.73788Q309.12204 163.95761 310.22067 164.13828Q311.82224 164.38242 312.72067 164.78281Q313.61911 165.17831 313.98044 165.75937Q314.34177 166.34042 314.34177 167.1998Q314.34177 168.60117 313.19919 169.37265Q312.06149 170.13925 310.20114 170.13925ZM317.73822 169.89999L317.73822 168.71835L322.03998 168.71835L322.03998 160.48105L317.93842 160.48105L317.93842 159.29941L323.35834 159.29941L323.35834 168.71835L327.05951 168.71835L327.05951 169.89999L317.73822 169.89999ZM321.91791 157.5416L321.91791 155.75937L323.31927 155.75937L323.31927 157.5416L321.91791 157.5416ZM328.85931 169.89999L328.85931 159.29941L330.08002 159.29941L330.11908 161.0621Q330.40228 160.10019 330.93939 159.58261Q331.48138 159.06015 332.28217 159.06015Q333.96185 159.06015 334.36224 161.35995Q334.64056 160.26132 335.24115 159.66074Q335.84174 159.06015 336.72064 159.06015Q337.98041 159.06015 338.55658 159.9537Q339.13763 160.84238 339.13763 162.83945L339.13763 169.89999L337.81927 169.89999L337.81927 163.02011Q337.81927 161.50156 337.45795 160.87167Q337.1015 160.24179 336.37885 160.24179Q335.64154 160.24179 335.14838 160.99374Q334.6601 161.74081 334.6601 163.11777L334.6601 169.89999L333.34174 169.89999L333.34174 163.09824Q333.34174 160.24179 331.88177 160.24179Q331.15912 160.24179 330.66595 161.00351Q330.17767 161.76035 330.17767 163.11777L330.17767 169.89999L328.85931 169.89999ZM341.6601 172.89804L341.6601 159.29941L342.8808 159.29941L342.90033 161.35995Q343.37885 160.24179 344.27728 159.65097Q345.1806 159.06015 346.33783 159.06015Q347.84174 159.06015 348.83783 159.80234Q349.83881 160.53964 350.33685 161.79941Q350.83978 163.05917 350.83978 164.60214Q350.83978 166.14023 350.33685 167.39999Q349.83881 168.65976 348.8476 169.40195Q347.86127 170.13925 346.36224 170.13925Q345.21967 170.13925 344.30658 169.56308Q343.39838 168.98203 342.97845 168.09824L342.97845 172.89804L341.6601 172.89804ZM346.2597 168.87949Q347.7392 168.87949 348.58881 167.74179Q349.43842 166.59921 349.43842 164.60214Q349.43842 162.60019 348.58881 161.46249Q347.7392 160.31992 346.24017 160.31992Q344.78021 160.31992 343.87689 161.46249Q342.97845 162.60019 342.97845 164.60214Q342.97845 166.59921 343.87689 167.74179Q344.78021 168.87949 346.2597 168.87949ZM353.3378 169.89999L353.3378 168.71835L357.63956 168.71835L357.63956 158.29843Q357.63956 157.61972 357.26846 157.25351Q356.90225 156.88242 356.21866 156.88242L353.73819 156.88242L353.73819 155.70078L356.25772 155.70078Q357.56143 155.70078 358.25967 156.4039Q358.95792 157.10214 358.95792 158.40097L358.95792 168.71835L362.65909 168.71835L362.65909 169.89999L353.3378 169.89999ZM370.18152 170.13925Q368.67761 170.13925 367.60828 169.43124Q366.53894 168.71835 365.97742 167.46835Q365.42078 166.21835 365.42078 164.60214Q365.42078 162.98105 365.97742 161.73105Q366.53894 160.48105 367.58875 159.77304Q368.63855 159.06015 370.09851 159.06015Q371.53894 159.06015 372.56921 159.73886Q373.59949 160.41757 374.17078 161.65781Q374.74207 162.89804 374.74207 164.5582L374.74207 164.97812L366.79773 164.97812Q366.88074 166.858 367.77917 167.86874Q368.67761 168.87949 370.18152 168.87949Q371.33875 168.87949 372.08582 168.32285Q372.83777 167.76132 373.12097 166.83847L374.54187 166.94101Q374.14148 168.34238 372.98914 169.24081Q371.84167 170.13925 370.18152 170.13925ZM366.79773 163.80136L373.2821 163.80136Q373.17957 162.10214 372.32996 161.21347Q371.48035 160.31992 370.09851 160.31992Q368.72156 160.31992 367.84753 161.233Q366.97839 162.1412 366.79773 163.80136ZM390.73914 169.89999L388.45886 159.29941L389.89929 159.29941L391.59851 168.51816L393.36121 160.75937L394.6405 160.75937L396.39832 168.51816L398.09753 159.29941L399.53796 159.29941L397.2821 169.89999L395.62195 169.89999L394.00085 162.67831L392.37976 169.89999L390.73914 169.89999ZM404.61899 170.13925Q403.61801 170.13925 402.827 169.78281Q402.04086 169.42148 401.58676 168.78183Q401.13754 168.14218 401.13754 167.27792Q401.13754 165.9791 401.98715 165.23203Q402.84164 164.48007 404.45786 164.15781L408.21762 163.4205Q408.21762 161.81894 407.54868 161.07187Q406.87973 160.31992 405.60043 160.31992Q404.37973 160.31992 403.67661 160.90097Q402.97836 161.48203 402.73911 162.5416L401.33774 162.41953Q401.64047 160.88144 402.73911 159.97324Q403.83774 159.06015 405.60043 159.06015Q407.48032 159.06015 408.51059 160.1832Q409.54086 161.30136 409.54086 163.38144L409.54086 167.80038Q409.54086 168.34238 409.72153 168.53281Q409.90219 168.71835 410.27817 168.71835L410.94223 168.71835L410.94223 169.89999Q410.82016 169.91953 410.5809 169.92929Q410.34164 169.93906 410.12192 169.93906Q409.30161 169.93906 408.82797 169.56308Q408.35922 169.18222 408.24203 168.23984Q407.7977 169.06015 406.82602 169.60214Q405.85922 170.13925 404.61899 170.13925ZM404.74106 168.95761Q406.40121 168.95761 407.30942 168.04941Q408.21762 167.1412 408.21762 165.73984L408.21762 164.57773L404.74106 165.26132Q403.59848 165.48105 403.06625 165.94003Q402.53891 166.39902 402.53891 167.16074Q402.53891 168.02011 403.11996 168.48886Q403.70102 168.95761 404.74106 168.95761ZM414.79767 172.89804L414.79767 171.72128L415.88165 171.72128Q416.5213 171.72128 416.83868 171.51132Q417.16095 171.30136 417.36115 170.7789L417.76154 169.6998L417.25861 169.6998L413.24005 159.29941L414.68048 159.29941L418.16193 168.51816L421.41876 159.29941L422.85919 159.29941L418.49884 171.21835Q418.18146 172.10214 417.61017 172.49765Q417.03888 172.89804 415.97931 172.89804L414.79767 172.89804ZM443.42169 169.89999Q440.63849 169.89999 440.63849 167.1998L440.63849 160.48105L437.05939 160.48105L437.05939 159.29941L440.63849 159.29941L440.63849 156.81894L441.96173 156.81894L441.96173 159.29941L446.25861 159.29941L446.25861 160.48105L441.96173 160.48105L441.96173 167.23886Q441.96173 168.71835 443.40216 168.71835L446.25861 168.71835L446.25861 169.89999L443.42169 169.89999ZM454.00076 170.13925Q452.56033 170.13925 451.50076 169.46054Q450.44119 168.78183 449.8699 167.5416Q449.29861 166.30136 449.29861 164.60214Q449.29861 162.89804 449.8699 161.65781Q450.44119 160.41757 451.50076 159.73886Q452.56033 159.06015 454.00076 159.06015Q455.44119 159.06015 456.491 159.73886Q457.5408 160.41757 458.11697 161.65781Q458.69803 162.89804 458.69803 164.60214Q458.69803 166.30136 458.11697 167.5416Q457.5408 168.78183 456.491 169.46054Q455.44119 170.13925 454.00076 170.13925ZM454.00076 168.87949Q455.55838 168.87949 456.43729 167.73203Q457.32108 166.57968 457.32108 164.60214Q457.32108 162.60019 456.43729 161.46249Q455.55838 160.31992 454.00076 160.31992Q452.41873 160.31992 451.54959 161.46249Q450.68045 162.60019 450.68045 164.60214Q450.68045 166.57968 451.54959 167.73203Q452.41873 168.87949 454.00076 168.87949ZM473.73804 169.89999L473.73804 168.71835L478.03979 168.71835L478.03979 160.48105L473.93823 160.48105L473.93823 159.29941L479.35815 159.29941L479.35815 168.71835L483.05933 168.71835L483.05933 169.89999L473.73804 169.89999ZM477.91772 157.5416L477.91772 155.75937L479.31909 155.75937L479.31909 157.5416L477.91772 157.5416ZM485.82104 169.89999L485.82104 159.29941L487.01733 159.29941L487.06128 161.34042Q487.46167 160.19785 488.4187 159.63144Q489.38062 159.06015 490.53784 159.06015Q491.75854 159.06015 492.56909 159.60214Q493.37964 160.13925 493.78003 161.05234Q494.18042 161.96054 494.18042 163.0787L494.18042 169.89999L492.86206 169.89999L492.86206 163.5621Q492.86206 161.9996 492.24194 161.1207Q491.62183 160.24179 490.25952 160.24179Q488.9021 160.24179 488.01831 161.1207Q487.1394 161.9996 487.1394 163.5621L487.1394 169.89999L485.82104 169.89999ZM503.4216 169.89999Q500.6384 169.89999 500.6384 167.1998L500.6384 160.48105L497.0593 160.48105L497.0593 159.29941L500.6384 159.29941L500.6384 156.81894L501.96164 156.81894L501.96164 159.29941L506.25851 159.29941L506.25851 160.48105L501.96164 160.48105L501.96164 167.23886Q501.96164 168.71835 503.40207 168.71835L506.25851 168.71835L506.25851 169.89999L503.4216 169.89999ZM514.18134 170.13925Q512.67743 170.13925 511.60809 169.43124Q510.53876 168.71835 509.97723 167.46835Q509.42059 166.21835 509.42059 164.60214Q509.42059 162.98105 509.97723 161.73105Q510.53876 160.48105 511.58856 159.77304Q512.63837 159.06015 514.09833 159.06015Q515.53876 159.06015 516.56903 159.73886Q517.5993 160.41757 518.17059 161.65781Q518.74188 162.89804 518.74188 164.5582L518.74188 164.97812L510.79755 164.97812Q510.88055 166.858 511.77899 167.86874Q512.67743 168.87949 514.18134 168.87949Q515.33856 168.87949 516.08563 168.32285Q516.83759 167.76132 517.12079 166.83847L518.54169 166.94101Q518.1413 168.34238 516.98895 169.24081Q515.84149 170.13925 514.18134 170.13925ZM510.79755 163.80136L517.28192 163.80136Q517.17938 162.10214 516.32977 161.21347Q515.48016 160.31992 514.09833 160.31992Q512.72137 160.31992 511.84735 161.233Q510.97821 162.1412 510.79755 163.80136ZM521.86005 169.89999L521.86005 168.71835L524.72137 168.71835L524.72137 160.48105L521.86005 160.48105L521.86005 159.29941L525.82001 159.29941L525.91766 161.45761Q526.53778 159.29941 528.5788 159.29941L530.65887 159.29941L530.65887 160.52011L528.55927 160.52011Q527.37762 160.52011 526.70868 161.32089Q526.03973 162.12167 526.03973 163.44003L526.03973 168.71835L529.4577 168.71835L529.4577 169.89999L521.86005 169.89999ZM536.61884 170.13925Q535.61786 170.13925 534.82684 169.78281Q534.04071 169.42148 533.58661 168.78183Q533.13739 168.14218 533.13739 167.27792Q533.13739 165.9791 533.987 165.23203Q534.84149 164.48007 536.4577 164.15781L540.21747 163.4205Q540.21747 161.81894 539.54852 161.07187Q538.87958 160.31992 537.60028 160.31992Q536.37958 160.31992 535.67645 160.90097Q534.97821 161.48203 534.73895 162.5416L533.33759 162.41953Q533.64032 160.88144 534.73895 159.97324Q535.83759 159.06015 537.60028 159.06015Q539.48016 159.06015 540.51044 160.1832Q541.54071 161.30136 541.54071 163.38144L541.54071 167.80038Q541.54071 168.34238 541.72137 168.53281Q541.90204 168.71835 542.27802 168.71835L542.94208 168.71835L542.94208 169.89999Q542.82001 169.91953 542.58075 169.92929Q542.34149 169.93906 542.12177 169.93906Q541.30145 169.93906 540.82782 169.56308Q540.35907 169.18222 540.24188 168.23984Q539.79755 169.06015 538.82587 169.60214Q537.85907 170.13925 536.61884 170.13925ZM536.74091 168.95761Q538.40106 168.95761 539.30927 168.04941Q540.21747 167.1412 540.21747 165.73984L540.21747 164.57773L536.74091 165.26132Q535.59833 165.48105 535.0661 165.94003Q534.53876 166.39902 534.53876 167.16074Q534.53876 168.02011 535.11981 168.48886Q535.70087 168.95761 536.74091 168.95761ZM550.27893 170.13925Q548.79944 170.13925 547.73987 169.43124Q546.6803 168.71835 546.10901 167.46835Q545.53772 166.21835 545.53772 164.60214Q545.53772 162.98105 546.10901 161.73105Q546.6803 160.48105 547.73987 159.77304Q548.79944 159.06015 550.27893 159.06015Q552.01721 159.06015 553.13538 160.0416Q554.25842 161.01816 554.60022 162.69785L553.21838 162.78085Q552.94006 161.61874 552.16858 160.96933Q551.40198 160.31992 550.27893 160.31992Q548.72131 160.31992 547.81799 161.46249Q546.91956 162.60019 546.91956 164.60214Q546.91956 166.57968 547.81799 167.73203Q548.72131 168.87949 550.27893 168.87949Q551.40198 168.87949 552.20764 168.19101Q553.01819 167.49765 553.28186 166.19882L554.65881 166.30136Q554.3219 168.02011 553.16956 169.07968Q552.01721 170.13925 550.27893 170.13925ZM563.42151 169.89999Q560.63831 169.89999 560.63831 167.1998L560.63831 160.48105L557.0592 160.48105L557.0592 159.29941L560.63831 159.29941L560.63831 156.81894L561.96155 156.81894L561.96155 159.29941L566.25842 159.29941L566.25842 160.48105L561.96155 160.48105L561.96155 167.23886Q561.96155 168.71835 563.40198 168.71835L566.25842 168.71835L566.25842 169.89999L563.42151 169.89999ZM582.73889 169.89999L580.45862 159.29941L581.89905 159.29941L583.59827 168.51816L585.36096 160.75937L586.64026 160.75937L588.39807 168.51816L590.09729 159.29941L591.53772 159.29941L589.28186 169.89999L587.6217 169.89999L586.00061 162.67831L584.37952 169.89999L582.73889 169.89999ZM593.73792 169.89999L593.73792 168.71835L598.03967 168.71835L598.03967 160.48105L593.93811 160.48105L593.93811 159.29941L599.35803 159.29941L599.35803 168.71835L603.0592 168.71835L603.0592 169.89999L593.73792 169.89999ZM597.9176 157.5416L597.9176 155.75937L599.31897 155.75937L599.31897 157.5416L597.9176 157.5416ZM611.42151 169.89999Q608.63831 169.89999 608.63831 167.1998L608.63831 160.48105L605.0592 160.48105L605.0592 159.29941L608.63831 159.29941L608.63831 156.81894L609.96155 156.81894L609.96155 159.29941L614.25842 159.29941L614.25842 160.48105L609.96155 160.48105L609.96155 167.23886Q609.96155 168.71835 611.40198 168.71835L614.25842 168.71835L614.25842 169.89999L611.42151 169.89999ZM618.13831 169.89999L618.13831 155.70078L619.46155 155.70078L619.46155 161.17929Q619.83752 160.10019 620.73596 159.58261Q621.63928 159.06015 622.78186 159.06015Q623.93909 159.06015 624.7301 159.58261Q625.52112 160.10019 625.90686 161.01328Q626.29749 161.92148 626.29749 163.0787L626.29749 169.89999L624.97913 169.89999L624.97913 163.5621Q624.97913 161.96054 624.37854 161.10117Q623.77795 160.24179 622.49866 160.24179Q621.09729 160.24179 620.27698 161.13046Q619.46155 162.01913 619.46155 163.58163L619.46155 169.89999L618.13831 169.89999Z"/>
	<path fill="#FF7676" d="M286.2793 192.13925Q284.7998 192.13925 283.74023 191.43124Q282.68066 190.71835 282.10938 189.46835Q281.53809 188.21835 281.53809 186.60214Q281.53809 184.98105 282.10938 183.73105Q282.68066 182.48105 283.74023 181.77304Q284.7998 181.06015 286.2793 181.06015Q288.01758 181.06015 289.13574 182.0416Q290.25879 183.01816 290.60059 184.69785L289.21875 184.78085Q288.94043 183.61874 288.16895 182.96933Q287.40234 182.31992 286.2793 182.31992Q284.72168 182.31992 283.81836 183.46249Q282.91992 184.60019 282.91992 186.60214Q282.91992 188.57968 283.81836 189.73203Q284.72168 190.87949 286.2793 190.87949Q287.40234 190.87949 288.20801 190.19101Q289.01855 189.49765 289.28223 188.19882L290.65918 188.30136Q290.32227 190.02011 289.16992 191.07968Q288.01758 192.13925 286.2793 192.13925ZM296.61914 192.13925Q295.61816 192.13925 294.82715 191.78281Q294.04102 191.42148 293.58691 190.78183Q293.1377 190.14218 293.1377 189.27792Q293.1377 187.9791 293.9873 187.23203Q294.8418 186.48007 296.45801 186.15781L300.21777 185.4205Q300.21777 183.81894 299.54883 183.07187Q298.87988 182.31992 297.60059 182.31992Q296.37988 182.31992 295.67676 182.90097Q294.97852 183.48203 294.73926 184.5416L293.33789 184.41953Q293.64062 182.88144 294.73926 181.97324Q295.83789 181.06015 297.60059 181.06015Q299.48047 181.06015 300.51074 182.1832Q301.54102 183.30136 301.54102 185.38144L301.54102 189.80038Q301.54102 190.34238 301.72168 190.53281Q301.90234 190.71835 302.27832 190.71835L302.94238 190.71835L302.94238 191.89999Q302.82031 191.91953 302.58105 191.92929Q302.3418 191.93906 302.12207 191.93906Q301.30176 191.93906 300.82812 191.56308Q300.35938 191.18222 300.24219 190.23984Q299.79785 191.06015 298.82617 191.60214Q297.85938 192.13925 296.61914 192.13925ZM296.74121 190.95761Q298.40137 190.95761 299.30957 190.04941Q300.21777 189.1412 300.21777 187.73984L300.21777 186.57773L296.74121 187.26132Q295.59863 187.48105 295.06641 187.94003Q294.53906 188.39902 294.53906 189.16074Q294.53906 190.02011 295.12012 190.48886Q295.70117 190.95761 296.74121 190.95761ZM305.82126 191.89999L305.82126 181.29941L307.01755 181.29941L307.06149 183.34042Q307.46188 182.19785 308.41891 181.63144Q309.38083 181.06015 310.53806 181.06015Q311.75876 181.06015 312.56931 181.60214Q313.37985 182.13925 313.78024 183.05234Q314.18063 183.96054 314.18063 185.0787L314.18063 191.89999L312.86227 191.89999L312.86227 185.5621Q312.86227 183.9996 312.24216 183.1207Q311.62204 182.24179 310.25974 182.24179Q308.90231 182.24179 308.01852 183.1207Q307.13962 183.9996 307.13962 185.5621L307.13962 191.89999L305.82126 191.89999ZM321.16107 191.89999L317.20111 181.29941L318.64154 181.29941L322.00092 190.5621L325.36029 181.29941L326.80072 181.29941L322.84076 191.89999L321.16107 191.89999ZM332.61908 192.13925Q331.6181 192.13925 330.82709 191.78281Q330.04095 191.42148 329.58685 190.78183Q329.13763 190.14218 329.13763 189.27792Q329.13763 187.9791 329.98724 187.23203Q330.84174 186.48007 332.45795 186.15781L336.21771 185.4205Q336.21771 183.81894 335.54877 183.07187Q334.87982 182.31992 333.60052 182.31992Q332.37982 182.31992 331.6767 182.90097Q330.97845 183.48203 330.7392 184.5416L329.33783 184.41953Q329.64056 182.88144 330.7392 181.97324Q331.83783 181.06015 333.60052 181.06015Q335.48041 181.06015 336.51068 182.1832Q337.54095 183.30136 337.54095 185.38144L337.54095 189.80038Q337.54095 190.34238 337.72162 190.53281Q337.90228 190.71835 338.27826 190.71835L338.94232 190.71835L338.94232 191.89999Q338.82025 191.91953 338.58099 191.92929Q338.34174 191.93906 338.12201 191.93906Q337.3017 191.93906 336.82806 191.56308Q336.35931 191.18222 336.24213 190.23984Q335.79779 191.06015 334.82611 191.60214Q333.85931 192.13925 332.61908 192.13925ZM332.74115 190.95761Q334.40131 190.95761 335.30951 190.04941Q336.21771 189.1412 336.21771 187.73984L336.21771 186.57773L332.74115 187.26132Q331.59857 187.48105 331.06635 187.94003Q330.539 188.39902 330.539 189.16074Q330.539 190.02011 331.12006 190.48886Q331.70111 190.95761 332.74115 190.95761ZM346.20111 192.13925Q344.83881 192.13925 343.8476 191.6705Q342.86127 191.20175 342.29974 190.41074Q341.73822 189.61972 341.6601 188.63828L343.04193 188.54062Q343.15912 189.61972 343.96967 190.2496Q344.78021 190.87949 346.20111 190.87949Q347.539 190.87949 348.25677 190.45956Q348.97943 190.03964 348.97943 189.1998Q348.97943 188.70175 348.74994 188.35995Q348.52045 188.01816 347.86127 187.76913Q347.20209 187.52011 345.87885 187.30038Q344.34076 187.0416 343.49115 186.63144Q342.64154 186.22128 342.30951 185.63046Q341.98236 185.03964 341.98236 184.1998Q341.98236 182.81796 342.99799 181.93906Q344.01849 181.06015 345.89838 181.06015Q347.15814 181.06015 348.03705 181.50937Q348.92084 181.95859 349.42865 182.72031Q349.94135 183.48203 350.0976 184.38046L348.72064 184.49765Q348.55951 183.57968 347.84662 182.9498Q347.13861 182.31992 345.87885 182.31992Q344.61908 182.31992 343.97943 182.84238Q343.33978 183.35995 343.33978 184.1998Q343.33978 184.80038 343.59857 185.16171Q343.86224 185.51816 344.49213 185.73788Q345.12201 185.95761 346.22064 186.13828Q347.8222 186.38242 348.72064 186.78281Q349.61908 187.17831 349.98041 187.75937Q350.34174 188.34042 350.34174 189.1998Q350.34174 190.60117 349.19916 191.37265Q348.06146 192.13925 346.20111 192.13925ZM365.73816 191.89999L365.73816 190.71835L370.03992 190.71835L370.03992 182.48105L365.93835 182.48105L365.93835 181.29941L371.35828 181.29941L371.35828 190.71835L375.05945 190.71835L375.05945 191.89999L365.73816 191.89999ZM369.91785 179.5416L369.91785 177.75937L371.31921 177.75937L371.31921 179.5416L369.91785 179.5416ZM377.82117 191.89999L377.82117 181.29941L379.01746 181.29941L379.0614 183.34042Q379.46179 182.19785 380.41882 181.63144Q381.38074 181.06015 382.53796 181.06015Q383.75867 181.06015 384.56921 181.60214Q385.37976 182.13925 385.78015 183.05234Q386.18054 183.96054 386.18054 185.0787L386.18054 191.89999L384.86218 191.89999L384.86218 185.5621Q384.86218 183.9996 384.24207 183.1207Q383.62195 182.24179 382.25964 182.24179Q380.90222 182.24179 380.01843 183.1207Q379.13953 183.9996 379.13953 185.5621L379.13953 191.89999L377.82117 191.89999ZM404.61899 192.13925Q403.61801 192.13925 402.827 191.78281Q402.04086 191.42148 401.58676 190.78183Q401.13754 190.14218 401.13754 189.27792Q401.13754 187.9791 401.98715 187.23203Q402.84164 186.48007 404.45786 186.15781L408.21762 185.4205Q408.21762 183.81894 407.54868 183.07187Q406.87973 182.31992 405.60043 182.31992Q404.37973 182.31992 403.67661 182.90097Q402.97836 183.48203 402.73911 184.5416L401.33774 184.41953Q401.64047 182.88144 402.73911 181.97324Q403.83774 181.06015 405.60043 181.06015Q407.48032 181.06015 408.51059 182.1832Q409.54086 183.30136 409.54086 185.38144L409.54086 189.80038Q409.54086 190.34238 409.72153 190.53281Q409.90219 190.71835 410.27817 190.71835L410.94223 190.71835L410.94223 191.89999Q410.82016 191.91953 410.5809 191.92929Q410.34164 191.93906 410.12192 191.93906Q409.30161 191.93906 408.82797 191.56308Q408.35922 191.18222 408.24203 190.23984Q407.7977 191.06015 406.82602 191.60214Q405.85922 192.13925 404.61899 192.13925ZM404.74106 190.95761Q406.40121 190.95761 407.30942 190.04941Q408.21762 189.1412 408.21762 187.73984L408.21762 186.57773L404.74106 187.26132Q403.59848 187.48105 403.06625 187.94003Q402.53891 188.39902 402.53891 189.16074Q402.53891 190.02011 403.11996 190.48886Q403.70102 190.95761 404.74106 190.95761ZM413.82111 191.89999L413.82111 181.29941L415.0174 181.29941L415.06134 183.34042Q415.46173 182.19785 416.41876 181.63144Q417.38068 181.06015 418.5379 181.06015Q419.75861 181.06015 420.56915 181.60214Q421.3797 182.13925 421.78009 183.05234Q422.18048 183.96054 422.18048 185.0787L422.18048 191.89999L420.86212 191.89999L420.86212 185.5621Q420.86212 183.9996 420.242 183.1207Q419.62189 182.24179 418.25958 182.24179Q416.90216 182.24179 416.01837 183.1207Q415.13947 183.9996 415.13947 185.5621L415.13947 191.89999L413.82111 191.89999ZM440.61896 192.13925Q439.61798 192.13925 438.82697 191.78281Q438.04083 191.42148 437.58673 190.78183Q437.13751 190.14218 437.13751 189.27792Q437.13751 187.9791 437.98712 187.23203Q438.84161 186.48007 440.45782 186.15781L444.21759 185.4205Q444.21759 183.81894 443.54865 183.07187Q442.8797 182.31992 441.6004 182.31992Q440.3797 182.31992 439.67657 182.90097Q438.97833 183.48203 438.73907 184.5416L437.33771 184.41953Q437.64044 182.88144 438.73907 181.97324Q439.83771 181.06015 441.6004 181.06015Q443.48029 181.06015 444.51056 182.1832Q445.54083 183.30136 445.54083 185.38144L445.54083 189.80038Q445.54083 190.34238 445.7215 190.53281Q445.90216 190.71835 446.27814 190.71835L446.9422 190.71835L446.9422 191.89999Q446.82013 191.91953 446.58087 191.92929Q446.34161 191.93906 446.12189 191.93906Q445.30157 191.93906 444.82794 191.56308Q444.35919 191.18222 444.242 190.23984Q443.79767 191.06015 442.82599 191.60214Q441.85919 192.13925 440.61896 192.13925ZM440.74103 190.95761Q442.40118 190.95761 443.30939 190.04941Q444.21759 189.1412 444.21759 187.73984L444.21759 186.57773L440.74103 187.26132Q439.59845 187.48105 439.06622 187.94003Q438.53888 188.39902 438.53888 189.16074Q438.53888 190.02011 439.11993 190.48886Q439.70099 190.95761 440.74103 190.95761ZM453.40018 192.13925Q452.01834 192.13925 451.0076 191.46054Q450.00174 190.78183 449.44998 189.5416Q448.89822 188.30136 448.89822 186.60214Q448.89822 184.89804 449.44998 183.65781Q450.00174 182.41757 451.0076 181.73886Q452.01834 181.06015 453.40018 181.06015Q454.58182 181.06015 455.46072 181.68027Q456.33963 182.30038 456.74002 183.15976L456.74002 177.70078L458.05838 177.70078L458.05838 191.89999L456.90115 191.89999L456.83768 189.94199Q456.39822 190.91855 455.49979 191.5289Q454.60135 192.13925 453.40018 192.13925ZM453.45877 190.87949Q454.98221 190.87949 455.86111 189.71249Q456.74002 188.54062 456.74002 186.60214Q456.74002 184.65878 455.86111 183.49179Q454.98221 182.31992 453.43924 182.31992Q451.97928 182.31992 451.12967 183.47226Q450.28006 184.61972 450.28006 186.60214Q450.28006 188.56015 451.13943 189.72226Q451.99881 190.87949 453.45877 190.87949ZM465.16089 191.89999L461.20093 181.29941L462.64136 181.29941L466.00073 190.5621L469.36011 181.29941L470.80054 181.29941L466.84058 191.89999L465.16089 191.89999ZM476.6189 192.13925Q475.61792 192.13925 474.8269 191.78281Q474.04077 191.42148 473.58667 190.78183Q473.13745 190.14218 473.13745 189.27792Q473.13745 187.9791 473.98706 187.23203Q474.84155 186.48007 476.45776 186.15781L480.21753 185.4205Q480.21753 183.81894 479.54858 183.07187Q478.87964 182.31992 477.60034 182.31992Q476.37964 182.31992 475.67651 182.90097Q474.97827 183.48203 474.73901 184.5416L473.33765 184.41953Q473.64038 182.88144 474.73901 181.97324Q475.83765 181.06015 477.60034 181.06015Q479.48022 181.06015 480.5105 182.1832Q481.54077 183.30136 481.54077 185.38144L481.54077 189.80038Q481.54077 190.34238 481.72144 190.53281Q481.9021 190.71835 482.27808 190.71835L482.94214 190.71835L482.94214 191.89999Q482.82007 191.91953 482.58081 191.92929Q482.34155 191.93906 482.12183 191.93906Q481.30151 191.93906 480.82788 191.56308Q480.35913 191.18222 480.24194 190.23984Q479.79761 191.06015 478.82593 191.60214Q477.85913 192.13925 476.6189 192.13925ZM476.74097 190.95761Q478.40112 190.95761 479.30933 190.04941Q480.21753 189.1412 480.21753 187.73984L480.21753 186.57773L476.74097 187.26132Q475.59839 187.48105 475.06616 187.94003Q474.53882 188.39902 474.53882 189.16074Q474.53882 190.02011 475.11987 190.48886Q475.70093 190.95761 476.74097 190.95761ZM485.82104 191.89999L485.82104 181.29941L487.01733 181.29941L487.06128 183.34042Q487.46167 182.19785 488.4187 181.63144Q489.38062 181.06015 490.53784 181.06015Q491.75854 181.06015 492.56909 181.60214Q493.37964 182.13925 493.78003 183.05234Q494.18042 183.96054 494.18042 185.0787L494.18042 191.89999L492.86206 191.89999L492.86206 185.5621Q492.86206 183.9996 492.24194 183.1207Q491.62183 182.24179 490.25952 182.24179Q488.9021 182.24179 488.01831 183.1207Q487.1394 183.9996 487.1394 185.5621L487.1394 191.89999L485.82104 191.89999ZM502.27902 192.13925Q500.79953 192.13925 499.73996 191.43124Q498.68039 190.71835 498.1091 189.46835Q497.53781 188.21835 497.53781 186.60214Q497.53781 184.98105 498.1091 183.73105Q498.68039 182.48105 499.73996 181.77304Q500.79953 181.06015 502.27902 181.06015Q504.0173 181.06015 505.13547 182.0416Q506.25851 183.01816 506.60031 184.69785L505.21848 184.78085Q504.94016 183.61874 504.16867 182.96933Q503.40207 182.31992 502.27902 182.31992Q500.72141 182.31992 499.81808 183.46249Q498.91965 184.60019 498.91965 186.60214Q498.91965 188.57968 499.81808 189.73203Q500.72141 190.87949 502.27902 190.87949Q503.40207 190.87949 504.20773 190.19101Q505.01828 189.49765 505.28195 188.19882L506.65891 188.30136Q506.32199 190.02011 505.16965 191.07968Q504.0173 192.13925 502.27902 192.13925ZM514.18134 192.13925Q512.67743 192.13925 511.60809 191.43124Q510.53876 190.71835 509.97723 189.46835Q509.42059 188.21835 509.42059 186.60214Q509.42059 184.98105 509.97723 183.73105Q510.53876 182.48105 511.58856 181.77304Q512.63837 181.06015 514.09833 181.06015Q515.53876 181.06015 516.56903 181.73886Q517.5993 182.41757 518.17059 183.65781Q518.74188 184.89804 518.74188 186.5582L518.74188 186.97812L510.79755 186.97812Q510.88055 188.858 511.77899 189.86874Q512.67743 190.87949 514.18134 190.87949Q515.33856 190.87949 516.08563 190.32285Q516.83759 189.76132 517.12079 188.83847L518.54169 188.94101Q518.1413 190.34238 516.98895 191.24081Q515.84149 192.13925 514.18134 192.13925ZM510.79755 185.80136L517.28192 185.80136Q517.17938 184.10214 516.32977 183.21347Q515.48016 182.31992 514.09833 182.31992Q512.72137 182.31992 511.84735 183.233Q510.97821 184.1412 510.79755 185.80136ZM525.40009 192.13925Q524.01825 192.13925 523.00751 191.46054Q522.00165 190.78183 521.44989 189.5416Q520.89813 188.30136 520.89813 186.60214Q520.89813 184.89804 521.44989 183.65781Q522.00165 182.41757 523.00751 181.73886Q524.01825 181.06015 525.40009 181.06015Q526.58173 181.06015 527.46063 181.68027Q528.33954 182.30038 528.73993 183.15976L528.73993 177.70078L530.05829 177.70078L530.05829 191.89999L528.90106 191.89999L528.83759 189.94199Q528.39813 190.91855 527.49969 191.5289Q526.60126 192.13925 525.40009 192.13925ZM525.45868 190.87949Q526.98212 190.87949 527.86102 189.71249Q528.73993 188.54062 528.73993 186.60214Q528.73993 184.65878 527.86102 183.49179Q526.98212 182.31992 525.43915 182.31992Q523.97919 182.31992 523.12958 183.47226Q522.27997 184.61972 522.27997 186.60214Q522.27997 188.56015 523.13934 189.72226Q523.99872 190.87949 525.45868 190.87949ZM546.73889 191.89999L544.45862 181.29941L545.89905 181.29941L547.59827 190.51816L549.36096 182.75937L550.64026 182.75937L552.39807 190.51816L554.09729 181.29941L555.53772 181.29941L553.28186 191.89999L551.6217 191.89999L550.00061 184.67831L548.37952 191.89999L546.73889 191.89999ZM560.61877 192.13925Q559.6178 192.13925 558.82678 191.78281Q558.04065 191.42148 557.58655 190.78183Q557.13733 190.14218 557.13733 189.27792Q557.13733 187.9791 557.98694 187.23203Q558.84143 186.48007 560.45764 186.15781L564.21741 185.4205Q564.21741 183.81894 563.54846 183.07187Q562.87952 182.31992 561.60022 182.31992Q560.37952 182.31992 559.67639 182.90097Q558.97815 183.48203 558.73889 184.5416L557.33752 184.41953Q557.64026 182.88144 558.73889 181.97324Q559.83752 181.06015 561.60022 181.06015Q563.4801 181.06015 564.51038 182.1832Q565.54065 183.30136 565.54065 185.38144L565.54065 189.80038Q565.54065 190.34238 565.72131 190.53281Q565.90198 190.71835 566.27795 190.71835L566.94202 190.71835L566.94202 191.89999Q566.81995 191.91953 566.58069 191.92929Q566.34143 191.93906 566.1217 191.93906Q565.30139 191.93906 564.82776 191.56308Q564.35901 191.18222 564.24182 190.23984Q563.79749 191.06015 562.82581 191.60214Q561.85901 192.13925 560.61877 192.13925ZM560.74084 190.95761Q562.401 190.95761 563.3092 190.04941Q564.21741 189.1412 564.21741 187.73984L564.21741 186.57773L560.74084 187.26132Q559.59827 187.48105 559.06604 187.94003Q558.5387 188.39902 558.5387 189.16074Q558.5387 190.02011 559.11975 190.48886Q559.70081 190.95761 560.74084 190.95761ZM570.79749 194.89804L570.79749 193.72128L571.88147 193.72128Q572.52112 193.72128 572.8385 193.51132Q573.16077 193.30136 573.36096 192.7789L573.76135 191.6998L573.25842 191.6998L569.23987 181.29941L570.6803 181.29941L574.16174 190.51816L577.41858 181.29941L578.85901 181.29941L574.49866 193.21835Q574.18127 194.10214 573.60999 194.49765Q573.0387 194.89804 571.97913 194.89804L570.79749 194.89804ZM585.56116 187.73984Q585.51721 186.97812 585.45862 186.05038Q585.40002 185.11777 585.36096 184.18027Q585.3219 183.23788 585.3219 182.44199L585.3219 177.70078L586.67932 177.70078L586.67932 182.44199Q586.67932 183.23788 586.64026 184.18027Q586.6012 185.11777 586.54749 186.05038Q586.49866 186.97812 586.44006 187.73984L585.56116 187.73984ZM584.90198 191.89999L584.90198 189.74179L587.09924 189.74179L587.09924 191.89999L584.90198 191.89999Z"/>
	<path fill="none" stroke="#FF8A8A" stroke-width="2.5" stroke-linecap="round" stroke-linejoin="round" transform="matrix(0.5 0.866025 -0.866025 0.5 204.904 -54.9038)" d="M150 67.5L190 67.5Q191.04332 67.5 192.08539 67.551193Q193.12744 67.602386 194.16574 67.704651Q195.20401 67.806915 196.23604 67.959999Q197.26805 68.113083 198.29132 68.31662Q199.31459 68.520157 200.32664 68.773666Q201.3387 69.027176 202.3371 69.330032Q203.33548 69.632889 204.31781 69.984375Q205.30014 70.335861 206.26402 70.735115Q207.22792 71.134369 208.17108 71.580444Q209.11423 72.02652 210.03435 72.518341Q210.95447 73.010155 211.84937 73.546524Q212.74423 74.082893 213.61172 74.662529Q214.47922 75.242172 215.31721 75.86367Q216.15521 76.485176 216.96172 77.147049Q217.7682 77.808914 218.54124 78.509567Q219.3143 79.21022 220.05203 79.947952Q220.78976 80.685684 221.49042 81.458733Q222.19107 82.231781 222.85297 83.038277Q223.51483 83.844772 224.13634 84.68277Q224.75783 85.520767 225.33746 86.388252Q225.91708 87.255737 226.45346 88.15062Q226.98984 89.045502 227.48164 89.965622Q227.97345 90.885742 228.41953 91.828888Q228.8656 92.772041 229.26486 93.735939Q229.66412 94.699837 230.01559 95.682167Q230.3671 96.664497 230.66997 97.662895Q230.97281 98.661285 231.22632 99.673332Q231.47983 100.68538 231.68336 101.70865Q231.8869 102.73192 232.04001 103.76395Q232.19308 104.79597 232.29536 105.83427Q232.39761 106.87256 232.44882 107.91462Q232.5 108.95668 232.5 110L232.5 190Q232.5 191.04332 232.44881 192.08539Q232.39761 193.12744 232.29536 194.16574Q232.1931 195.20401 232.04001 196.23604Q231.88693 197.26805 231.68338 198.29132Q231.47983 199.31459 231.22632 200.32664Q230.97282 201.3387 230.66997 202.3371Q230.3671 203.33548 230.01561 204.31781Q229.66412 205.30014 229.26486 206.26402Q228.8656 207.22792 228.41953 208.17108Q227.97345 209.11423 227.48164 210.03435Q226.98982 210.95447 226.45345 211.84937Q225.91707 212.74423 225.33743 213.61172Q224.75781 214.47922 224.13631 215.31721Q223.5148 216.15521 222.85294 216.96172Q222.19106 217.7682 221.4904 218.54124Q220.78975 219.3143 220.05202 220.05203Q219.31427 220.78976 218.54123 221.49042Q217.76819 222.19107 216.9617 222.85297Q216.15521 223.51483 215.3172 224.13634Q214.4792 224.75783 213.61171 225.33746Q212.74423 225.91708 211.84935 226.45346Q210.95447 226.98984 210.03436 227.48164Q209.11423 227.97345 208.17108 228.41953Q207.22794 228.8656 206.26404 229.26486Q205.30014 229.66412 204.31783 230.01559Q203.33548 230.3671 202.3371 230.66997Q201.3387 230.97281 200.32664 231.22632Q199.31459 231.47983 198.29132 231.68336Q197.26805 231.8869 196.23602 232.04001Q195.20401 232.19308 194.16573 232.29536Q193.12744 232.39761 192.08537 232.44879Q191.04332 232.5 190 232.5L110 232.5Q108.95668 232.5 107.91462 232.44881Q106.87256 232.39761 105.83427 232.29536Q104.79597 232.1931 103.76395 232.04001Q102.73193 231.88693 101.70866 231.68338Q100.68539 231.47983 99.67334 231.22632Q98.661285 230.97282 97.662888 230.66997Q96.66449 230.3671 95.682159 230.01561Q94.699837 229.66412 93.735939 229.26486Q92.772041 228.8656 91.828896 228.41953Q90.885742 227.97345 89.965622 227.48164Q89.045502 226.98982 88.15062 226.45345Q87.25573 225.91707 86.388245 225.33743Q85.52076 224.75781 84.682762 224.13631Q83.844772 223.5148 83.038277 222.85294Q82.231781 222.19106 81.458733 221.4904Q80.685684 220.78975 79.947952 220.05202Q79.21022 219.31427 78.509567 218.54123Q77.808914 217.76819 77.147049 216.9617Q76.485176 216.15521 75.86367 215.3172Q75.242172 214.4792 74.662529 213.61171Q74.082893 212.74423 73.546524 211.84935Q73.010155 210.95447 72.518341 210.03436Q72.02652 209.11423 71.580444 208.17108Q71.134369 207.22794 70.735107 206.26404Q70.335846 205.30014 69.984375 204.31783Q69.632889 203.33548 69.330032 202.3371Q69.027176 201.3387 68.773666 200.32664Q68.520157 199.31459 68.31662 198.29132Q68.113083 197.26805 67.959999 196.23602Q67.806915 195.20401 67.704651 194.16573Q67.602386 193.12744 67.551193 192.08537Q67.5 191.04332 67.5 190L67.5 110Q67.5 108.95668 67.551193 107.91462Q67.602386 106.87256 67.704651 105.83427Q67.806915 104.79597 67.959999 103.76395Q68.113083 102.73193 68.31662 101.70866Q68.520157 100.68539 68.773666 99.67334Q69.027176 98.661285 69.330032 97.662888Q69.632889 96.66449 69.984367 95.682159Q70.335846 94.699837 70.735107 93.735939Q71.134369 92.772041 71.580444 91.828896Q72.02652 90.885742 72.518341 89.965622Q73.010155 89.045502 73.546524 88.15062Q74.082893 87.25573 74.662529 86.388245Q75.242172 85.52076 75.86367 84.682762Q76.485176 83.844772 77.147049 83.038277Q77.808914 82.231781 78.509567 81.458733Q79.21022 80.685684 79.947952 79.947952Q80.685684 79.21022 81.458733 78.509567Q82.231781 77.808922 83.038277 77.147057Q83.844772 76.485184 84.68277 75.863678Q85.520767 75.242172 86.388252 74.662537Q87.255737 74.082901 88.15062 73.546524Q89.045502 73.010155 89.965622 72.518341Q90.885742 72.02652 91.828888 71.580444Q92.772041 71.134369 93.735939 70.735115Q94.699837 70.335861 95.682167 69.984375Q96.664497 69.632889 97.662895 69.330032Q98.661285 69.027176 99.673332 68.773666Q100.68538 68.520157 101.70865 68.31662Q102.73192 68.113083 103.76395 67.959999Q104.79597 67.806915 105.83427 67.704651Q106.87256 67.602386 107.91462 67.551193Q108.95668 67.5 110 67.5L150 67.5Z"/>
	<path fill="none" stroke="#FF8A8A" stroke-width="2.5" stroke-linecap="round" stroke-linejoin="round" transform="matrix(0.258819 0.965926 -0.965926 0.258819 256.066 -33.7117)" d="M150 77.5L185 77.5Q185.92056 77.5 186.84003 77.545174Q187.75949 77.590347 188.67564 77.68058Q189.59177 77.770813 190.50238 77.905884Q191.41298 78.040955 192.31586 78.220551Q193.21875 78.400146 194.11174 78.623833Q195.00473 78.847519 195.88567 79.114746Q196.7666 79.381973 197.63335 79.692093Q198.50009 80.002228 199.35059 80.354515Q200.20108 80.706802 201.03328 81.100403Q201.86548 81.494003 202.67735 81.927956Q203.48923 82.361908 204.27882 82.835175Q205.06842 83.308441 205.83385 83.819885Q206.59927 84.331329 207.33868 84.879715Q208.07811 85.428101 208.78973 86.012108Q209.50134 86.596107 210.18343 87.214325Q210.86552 87.832542 211.51648 88.48349Q212.16742 89.13443 212.78564 89.816528Q213.40387 90.498634 213.98788 91.210251Q214.57188 91.92186 215.12027 92.66127Q215.66864 93.400681 216.18008 94.1661Q216.69153 94.931534 217.16479 95.721138Q217.63809 96.510742 218.07205 97.322617Q218.50601 98.134491 218.8996 98.966675Q219.29318 99.798859 219.64548 100.64935Q219.99777 101.49985 220.30791 102.36661Q220.61803 103.23337 220.88525 104.11431Q221.15248 104.99524 221.37616 105.88823Q221.59985 106.78122 221.77943 107.6841Q221.95903 108.58699 222.09412 109.4976Q222.22919 110.40822 222.31943 111.32436Q222.40965 112.24049 222.45482 113.15997Q222.5 114.07942 222.5 115L222.5 185Q222.5 185.92056 222.45483 186.84003Q222.40965 187.75949 222.31943 188.67564Q222.22919 189.59177 222.09412 190.50238Q221.95905 191.41298 221.77945 192.31586Q221.59985 193.21875 221.37617 194.11174Q221.1525 195.00473 220.88527 195.88567Q220.61804 196.7666 220.30789 197.63335Q219.99777 198.50009 219.64548 199.35059Q219.29318 200.20108 218.8996 201.03328Q218.50601 201.86548 218.07205 202.67735Q217.63809 203.48923 217.16481 204.27882Q216.69153 205.06842 216.1801 205.83385Q215.66866 206.59927 215.12027 207.33868Q214.5719 208.07811 213.9879 208.78973Q213.40388 209.50134 212.78564 210.18343Q212.16743 210.86552 211.51649 211.51648Q210.86554 212.16742 210.18344 212.78564Q209.50134 213.40387 208.78973 213.98788Q208.07812 214.57188 207.33871 215.12027Q206.5993 215.66864 205.83386 216.18008Q205.06844 216.69153 204.27884 217.16479Q203.48923 217.63809 202.67735 218.07205Q201.86548 218.50601 201.03329 218.8996Q200.20111 219.29318 199.3506 219.64548Q198.50011 219.99777 197.63335 220.30791Q196.7666 220.61803 195.88567 220.88525Q195.00473 221.15248 194.11174 221.37616Q193.21875 221.59985 192.31587 221.77943Q191.41299 221.95903 190.5024 222.09412Q189.5918 222.22919 188.67566 222.31943Q187.75949 222.40965 186.84003 222.45482Q185.92056 222.5 185 222.5L115 222.5Q114.07942 222.5 113.15996 222.45483Q112.24049 222.40965 111.32436 222.31943Q110.40822 222.22919 109.4976 222.09412Q108.58698 221.95905 107.6841 221.77945Q106.78121 221.59985 105.88823 221.37617Q104.99525 221.1525 104.11432 220.88527Q103.23338 220.61804 102.36662 220.30789Q101.49986 219.99777 100.64936 219.64548Q99.798859 219.29318 98.966675 218.8996Q98.134491 218.50601 97.322617 218.07205Q96.510742 217.63809 95.721146 217.16481Q94.931534 216.69153 94.166107 216.1801Q93.400681 215.66866 92.66127 215.12027Q91.92186 214.5719 91.210251 213.9879Q90.498634 213.40388 89.816528 212.78564Q89.13443 212.16743 88.48349 211.51649Q87.832542 210.86554 87.214325 210.18344Q86.596107 209.50134 86.012108 208.78973Q85.428101 208.07812 84.879715 207.33871Q84.331329 206.5993 83.819885 205.83386Q83.308441 205.06844 82.835175 204.27884Q82.361908 203.48923 81.927956 202.67735Q81.494003 201.86548 81.100403 201.03329Q80.706802 200.20111 80.354515 199.3506Q80.002228 198.50011 79.692093 197.63335Q79.381966 196.7666 79.114738 195.88567Q78.847511 195.00473 78.623825 194.11174Q78.400146 193.21875 78.220551 192.31587Q78.040955 191.41299 77.905884 190.5024Q77.770813 189.5918 77.68058 188.67566Q77.590347 187.75949 77.545174 186.84003Q77.5 185.92056 77.5 185L77.5 115Q77.5 114.07942 77.545174 113.15996Q77.590347 112.24049 77.68058 111.32436Q77.770813 110.40822 77.905884 109.4976Q78.040955 108.58698 78.220551 107.6841Q78.400146 106.78121 78.623833 105.88823Q78.847519 104.99525 79.114746 104.11432Q79.381973 103.23338 79.692093 102.36662Q80.002228 101.49986 80.354515 100.64936Q80.706802 99.798859 81.100403 98.966675Q81.494003 98.134491 81.927956 97.322617Q82.361908 96.510742 82.835175 95.721146Q83.308441 94.931534 83.819885 94.166107Q84.331329 93.400681 84.879715 92.66127Q85.428101 91.92186 86.012108 91.210251Q86.596107 90.498634 87.214325 89.816528Q87.832542 89.13443 88.48349 88.48349Q89.13443 87.832542 89.816528 87.214325Q90.498634 86.596107 91.210251 86.012108Q91.92186 85.428101 92.66127 84.879715Q93.400681 84.331329 94.1661 83.819885Q94.931534 83.308441 95.721138 82.835175Q96.510742 82.361908 97.322617 81.927956Q98.134491 81.494003 98.966675 81.100403Q99.798859 80.706802 100.64935 80.354515Q101.49985 80.002228 102.36661 79.692093Q103.23337 79.381966 104.11431 79.114738Q104.99524 78.847511 105.88823 78.623825Q106.78122 78.400146 107.6841 78.220551Q108.58699 78.040955 109.4976 77.905884Q110.40822 77.770813 111.32436 77.68058Q112.24049 77.590347 113.15997 77.545174Q114.07942 77.5 115 77.5L150 77.5Z"/>
	<path fill="none" stroke="#FF8A8A" stroke-width="2.5" stroke-linecap="round" stroke-linejoin="round" transform="matrix(0 1 -1 0 300 0)" d="M150 87.5L180 87.5Q180.79782 87.5 181.5947 87.539146Q182.39157 87.578293 183.18556 87.656494Q183.97954 87.734695 184.76872 87.851761Q185.55792 87.968826 186.34042 88.124474Q187.12292 88.280121 187.89684 88.473976Q188.67075 88.667831 189.43423 88.899437Q190.19772 89.131035 190.94891 89.399818Q191.7001 89.668594 192.43719 89.973907Q193.17429 90.279221 193.89554 90.620346Q194.61676 90.961456 195.3204 91.337555Q196.02402 91.713654 196.70834 92.123817Q197.39265 92.533981 198.05603 92.977234Q198.71939 93.420486 199.36023 93.895752Q200.00105 94.371017 200.6178 94.877159Q201.23453 95.383293 201.82567 95.919083Q202.41681 96.454865 202.98096 97.01902Q203.5451 97.583168 204.0809 98.174324Q204.6167 98.765472 205.12285 99.38221Q205.62898 99.998932 206.10425 100.63976Q206.57951 101.28058 207.02277 101.94395Q207.466 102.60732 207.87619 103.29164Q208.28635 103.97597 208.66245 104.6796Q209.03854 105.38322 209.37965 106.10445Q209.72076 106.82568 210.02608 107.56277Q210.33139 108.29988 210.60017 109.05107Q210.86896 109.80226 211.10057 110.56574Q211.33217 111.32921 211.52602 112.10313Q211.71988 112.87704 211.87552 113.65955Q212.03116 114.44205 212.14824 115.23125Q212.2653 116.02045 212.34352 116.81444Q212.42172 117.60843 212.46086 118.4053Q212.5 119.20216 212.5 120L212.5 180Q212.5 180.79782 212.46086 181.5947Q212.42172 182.39157 212.34352 183.18556Q212.2653 183.97954 212.14822 184.76872Q212.03116 185.55792 211.87552 186.34042Q211.71988 187.12292 211.52602 187.89684Q211.33217 188.67075 211.10057 189.43423Q210.86896 190.19772 210.60017 190.94891Q210.33139 191.7001 210.02608 192.43719Q209.72076 193.17429 209.37965 193.89554Q209.03854 194.61676 208.66245 195.3204Q208.28635 196.02402 207.87617 196.70834Q207.466 197.39265 207.02275 198.05603Q206.5795 198.71939 206.10423 199.36023Q205.62897 200.00105 205.12285 200.6178Q204.6167 201.23453 204.0809 201.82567Q203.5451 202.41681 202.98097 202.98096Q202.41681 203.5451 201.82567 204.0809Q201.23453 204.6167 200.6178 205.12285Q200.00105 205.62898 199.36023 206.10425Q198.71939 206.57951 198.05603 207.02277Q197.39265 207.466 196.70834 207.87619Q196.02402 208.28635 195.3204 208.66245Q194.61676 209.03854 193.89552 209.37965Q193.17429 209.72076 192.43719 210.02608Q191.7001 210.33139 190.94891 210.60017Q190.19772 210.86896 189.43425 211.10057Q188.67076 211.33217 187.89684 211.52602Q187.12292 211.71988 186.34042 211.87552Q185.55792 212.03116 184.76874 212.14824Q183.97954 212.2653 183.18556 212.34352Q182.39157 212.42171 181.5947 212.46085Q180.79782 212.5 180 212.5L120 212.5Q119.20216 212.5 118.4053 212.46086Q117.60843 212.42171 116.81445 212.34352Q116.02045 212.2653 115.23125 212.14822Q114.44206 212.03116 113.65956 211.87552Q112.87706 211.71988 112.10314 211.52602Q111.32922 211.33217 110.56575 211.10057Q109.80227 210.86896 109.05107 210.60017Q108.29988 210.33139 107.56278 210.02608Q106.82568 209.72076 106.10445 209.37965Q105.38322 209.03854 104.6796 208.66245Q103.97598 208.28635 103.29166 207.87617Q102.60733 207.466 101.94396 207.02275Q101.28059 206.5795 100.63977 206.10423Q99.998947 205.62897 99.382217 205.12285Q98.765488 204.6167 98.174324 204.0809Q97.583176 203.5451 97.019028 202.98097Q96.454872 202.41681 95.919083 201.82567Q95.383293 201.23453 94.877159 200.6178Q94.371017 200.00105 93.895752 199.36023Q93.420486 198.71939 92.977234 198.05603Q92.533981 197.39265 92.123817 196.70834Q91.713654 196.02402 91.337563 195.3204Q90.961456 194.61676 90.620346 193.89552Q90.279221 193.17429 89.973907 192.43719Q89.668594 191.7001 89.399811 190.94891Q89.131035 190.19772 88.899437 189.43425Q88.667831 188.67076 88.473969 187.89684Q88.280113 187.12292 88.124466 186.34042Q87.968811 185.55792 87.851753 184.76874Q87.734688 183.97954 87.656494 183.18556Q87.578293 182.39157 87.539146 181.5947Q87.5 180.79782 87.5 180L87.5 120Q87.5 119.20216 87.539146 118.4053Q87.578293 117.60843 87.656494 116.81445Q87.734695 116.02045 87.851761 115.23125Q87.968826 114.44206 88.124474 113.65956Q88.280121 112.87706 88.473976 112.10314Q88.667831 111.32922 88.899437 110.56575Q89.131035 109.80227 89.399818 109.05107Q89.668594 108.29988 89.973907 107.56278Q90.279221 106.82568 90.620346 106.10445Q90.961456 105.38322 91.337555 104.6796Q91.713646 103.97598 92.12381 103.29166Q92.533974 102.60733 92.977219 101.94396Q93.420471 101.28059 93.895737 100.63977Q94.371002 99.998947 94.877151 99.382217Q95.383286 98.765488 95.919075 98.174324Q96.454865 97.583176 97.01902 97.019028Q97.583168 96.454872 98.174324 95.919083Q98.765472 95.383293 99.38221 94.877159Q99.998932 94.371017 100.63976 93.895752Q101.28058 93.420486 101.94395 92.977234Q102.60732 92.533981 103.29164 92.123817Q103.97597 91.713654 104.6796 91.337563Q105.38322 90.961456 106.10445 90.620346Q106.82568 90.279228 107.56277 89.973915Q108.29988 89.668594 109.05107 89.399811Q109.80226 89.131042 110.56574 88.899445Q111.32921 88.667847 112.10313 88.473991Q112.87704 88.280128 113.65955 88.124481Q114.44205 87.968826 115.23125 87.851768Q116.02045 87.734695 116.81444 87.656502Q117.60843 87.578293 118.4053 87.539146Q119.20216 87.5 120 87.5L150 87.5Z"/>
	<path fill="none" stroke="#FF8A8A" stroke-width="2.5" stroke-linecap="round" stroke-linejoin="round" transform="matrix(-0.258819 0.965926 -0.965926 -0.258819 333.712 43.934)" d="M150 97.5L175 97.5Q175.67508 97.5 176.34937 97.533127Q177.02365 97.566254 177.69548 97.632431Q178.36732 97.698593 179.03511 97.797653Q179.70288 97.896698 180.36499 98.028404Q181.0271 98.16011 181.68196 98.32415Q182.33682 98.488174 182.98283 98.684143Q183.62885 98.880112 184.26445 99.107536Q184.90009 99.334961 185.52377 99.5933Q186.14748 99.851639 186.75775 100.14028Q187.36803 100.42892 187.96341 100.74716Q188.55878 101.06539 189.13782 101.41246Q189.71686 101.75952 190.27817 102.13457Q190.83948 102.50963 191.38171 102.91178Q191.92395 103.31393 192.44582 103.7422Q192.96765 104.17047 193.46786 104.62383Q193.96808 105.07719 194.44543 105.55455Q194.92279 106.03191 195.37616 106.53212Q195.82951 107.03233 196.2578 107.55418Q196.68607 108.07603 197.0882 108.61826Q197.49033 109.16049 197.86539 109.7218Q198.24045 110.28311 198.58752 110.86216Q198.93459 111.44121 199.25284 112.03658Q199.57106 112.63195 199.85968 113.24222Q200.14832 113.85249 200.40668 114.47618Q200.66501 115.09988 200.89246 115.73551Q201.11987 116.37114 201.31586 117.01716Q201.51181 117.66317 201.67584 118.31802Q201.83987 118.97287 201.97159 119.63499Q202.1033 120.29711 202.20236 120.9649Q202.30142 121.63268 202.36758 122.30453Q202.43375 122.97636 202.46687 123.65063Q202.5 124.32491 202.5 125L202.5 175Q202.5 175.67508 202.46689 176.34937Q202.43376 177.02365 202.3676 177.69548Q202.30142 178.36732 202.20236 179.03511Q202.1033 179.70288 201.97159 180.36499Q201.83987 181.0271 201.67584 181.68196Q201.51181 182.33682 201.31586 182.98283Q201.11987 183.62885 200.89244 184.26445Q200.66501 184.90009 200.40666 185.52377Q200.14832 186.14748 199.85968 186.75775Q199.57104 187.36803 199.25282 187.96341Q198.93457 188.55878 198.58751 189.13782Q198.24045 189.71686 197.86539 190.27817Q197.49033 190.83948 197.08818 191.38171Q196.68605 191.92395 196.25778 192.44582Q195.8295 192.96765 195.37614 193.46786Q194.92279 193.96808 194.44543 194.44543Q193.96808 194.92279 193.46786 195.37616Q192.96767 195.82951 192.44583 196.2578Q191.92397 196.68607 191.38171 197.0882Q190.83948 197.49033 190.27817 197.86539Q189.71686 198.24045 189.13782 198.58752Q188.55878 198.93459 187.96341 199.25284Q187.36803 199.57106 186.75775 199.85968Q186.14749 200.14832 185.52379 200.40668Q184.9001 200.66501 184.2645 200.89246Q183.62886 201.11987 182.98285 201.31586Q182.33682 201.51181 181.68196 201.67584Q181.0271 201.83987 180.36499 201.97159Q179.70288 202.1033 179.0351 202.20236Q178.36732 202.30142 177.69548 202.36758Q177.02365 202.43375 176.34937 202.46687Q175.67508 202.5 175 202.5L125 202.5Q124.32491 202.5 123.65064 202.46687Q122.97636 202.43375 122.30453 202.3676Q121.63268 202.30142 120.9649 202.20236Q120.29712 202.1033 119.635 201.97159Q118.97289 201.83987 118.31803 201.67584Q117.66318 201.51181 117.01716 201.31586Q116.37114 201.11987 115.73552 200.89244Q115.09989 200.66501 114.47619 200.40666Q113.85249 200.14832 113.24222 199.85968Q112.63194 199.57104 112.03658 199.25282Q111.4412 198.93457 110.86215 198.58751Q110.28311 198.24045 109.7218 197.86539Q109.16049 197.49033 108.61826 197.08818Q108.07603 196.68605 107.55418 196.25778Q107.03233 195.8295 106.53212 195.37614Q106.03191 194.92279 105.55455 194.44543Q105.07719 193.96808 104.62383 193.46786Q104.17047 192.96767 103.74221 192.44583Q103.31393 191.92397 102.91179 191.38171Q102.50963 190.83948 102.13457 190.27817Q101.75952 189.71686 101.41245 189.13782Q101.06539 188.55878 100.74716 187.96341Q100.42892 187.36803 100.14028 186.75775Q99.851639 186.14749 99.5933 185.52379Q99.334961 184.9001 99.107529 184.2645Q98.880104 183.62886 98.684135 182.98285Q98.488174 182.33682 98.324135 181.68196Q98.160103 181.0271 98.028397 180.36499Q97.896698 179.70288 97.797646 179.0351Q97.698593 178.36732 97.632423 177.69548Q97.566254 177.02365 97.533119 176.34937Q97.5 175.67508 97.5 175L97.5 125Q97.5 124.32491 97.533127 123.65064Q97.566254 122.97636 97.632431 122.30453Q97.698593 121.63268 97.797653 120.9649Q97.896698 120.29712 98.028404 119.635Q98.16011 118.97289 98.32415 118.31803Q98.488174 117.66318 98.684143 117.01716Q98.880112 116.37114 99.107536 115.73552Q99.334961 115.09989 99.5933 114.47619Q99.851639 113.85249 100.14028 113.24222Q100.42892 112.63194 100.74716 112.03658Q101.06539 111.4412 101.41246 110.86215Q101.75952 110.28311 102.13457 109.7218Q102.50963 109.16049 102.91178 108.61826Q103.31393 108.07603 103.7422 107.55418Q104.17047 107.03233 104.62383 106.53212Q105.07719 106.03191 105.55455 105.55455Q106.03191 105.07719 106.53212 104.62383Q107.03233 104.17047 107.55418 103.74221Q108.07603 103.31393 108.61826 102.91179Q109.16049 102.50963 109.7218 102.13457Q110.28311 101.75952 110.86216 101.41245Q111.44121 101.06539 112.03658 100.74716Q112.63195 100.42892 113.24222 100.14028Q113.85249 99.851639 114.47618 99.5933Q115.09988 99.334961 115.73551 99.107536Q116.37114 98.880112 117.01716 98.684143Q117.66317 98.488174 118.31802 98.324142Q118.97287 98.16011 119.63499 98.028404Q120.29711 97.896698 120.9649 97.797646Q121.63268 97.698593 122.30453 97.632423Q122.97636 97.566254 123.65063 97.533119Q124.32491 97.5 125 97.5L150 97.5Z"/>
	<path fill="none" stroke="#FF8A8A" stroke-width="2.5" stroke-linecap="round" stroke-linejoin="round" transform="matrix(-0.5 0.866025 -0.866025 -0.5 354.904 95.0962)" d="M150 107.5L170 107.5Q170.55234 107.5 171.10403 107.5271Q171.6557 107.55421 172.2054 107.60835Q172.75507 107.66248 173.30142 107.74353Q173.84778 107.82457 174.38951 107.93233Q174.93124 108.04008 175.46704 108.17429Q176.00284 108.3085 176.5314 108.46884Q177.05995 108.62917 177.58002 108.81525Q178.10005 109.00133 178.61035 109.2127Q179.12065 109.42407 179.61998 109.66023Q180.11929 109.89639 180.60641 110.15677Q181.09354 110.41714 181.56729 110.7011Q182.04105 110.98506 182.50032 111.29193Q182.95958 111.59879 183.40323 111.92783Q183.84688 112.25686 184.27385 112.60727Q184.70081 112.95767 185.11006 113.3286Q185.51932 113.69952 185.9099 114.09009Q186.30045 114.48065 186.67139 114.88991Q187.04233 115.29918 187.39273 115.72614Q187.74313 116.15311 188.07216 116.59675Q188.40118 117.04039 188.70805 117.49965Q189.01492 117.95891 189.29889 118.43268Q189.58284 118.90643 189.84322 119.39356Q190.10358 119.88069 190.33975 120.38Q190.5759 120.87932 190.78728 121.38961Q190.99866 121.89991 191.18472 122.41997Q191.37082 122.94003 191.53116 123.4686Q191.6915 123.99715 191.8257 124.53294Q191.9599 125.06873 192.06766 125.61046Q192.17542 126.15219 192.25647 126.69855Q192.33752 127.24492 192.39166 127.79461Q192.4458 128.3443 192.4729 128.89597Q192.5 129.44766 192.5 130L192.5 170Q192.5 170.55234 192.4729 171.10403Q192.4458 171.6557 192.39166 172.2054Q192.33752 172.75507 192.25648 173.30142Q192.17542 173.84778 192.06766 174.38951Q191.9599 174.93124 191.82568 175.46704Q191.69148 176.00284 191.53114 176.5314Q191.37079 177.05995 191.18471 177.58002Q190.99863 178.10005 190.78726 178.61035Q190.57588 179.12065 190.33972 179.61998Q190.10358 180.11929 189.84322 180.60641Q189.58282 181.09354 189.29887 181.56729Q189.01491 182.04105 188.70805 182.50032Q188.40118 182.95958 188.07216 183.40323Q187.74313 183.84688 187.39273 184.27385Q187.04233 184.70081 186.67139 185.11006Q186.30045 185.51932 185.90988 185.9099Q185.51932 186.30045 185.11006 186.67139Q184.70081 187.04233 184.27383 187.39273Q183.84686 187.74313 183.40321 188.07216Q182.95956 188.40118 182.50031 188.70805Q182.04105 189.01492 181.56729 189.29889Q181.09352 189.58284 180.6064 189.84322Q180.11926 190.10358 179.61996 190.33975Q179.12064 190.5759 178.61035 190.78728Q178.10005 190.99866 177.58002 191.18472Q177.05995 191.37082 176.5314 191.53116Q176.00284 191.6915 175.46704 191.8257Q174.93124 191.9599 174.38953 192.06766Q173.84779 192.17542 173.30142 192.25647Q172.75507 192.33752 172.20538 192.39166Q171.6557 192.4458 171.10403 192.4729Q170.55234 192.5 170 192.5L130 192.5Q129.44766 192.5 128.89598 192.4729Q128.3443 192.4458 127.79462 192.39166Q127.24493 192.33752 126.69856 192.25648Q126.15219 192.17542 125.61046 192.06766Q125.06873 191.9599 124.53294 191.82568Q123.99715 191.69148 123.46859 191.53114Q122.94003 191.37079 122.41997 191.18471Q121.89991 190.99863 121.38961 190.78726Q120.87932 190.57588 120.38 190.33972Q119.88069 190.10358 119.39357 189.84322Q118.90644 189.58282 118.43268 189.29887Q117.95892 189.01491 117.49966 188.70805Q117.04041 188.40118 116.59676 188.07216Q116.15311 187.74313 115.72614 187.39273Q115.29918 187.04233 114.88992 186.67139Q114.48065 186.30045 114.09009 185.90988Q113.69952 185.51932 113.3286 185.11006Q112.95766 184.70081 112.60727 184.27383Q112.25686 183.84686 111.92782 183.40321Q111.59879 182.95956 111.29192 182.50031Q110.98505 182.04105 110.7011 181.56729Q110.41714 181.09352 110.15677 180.6064Q109.89639 180.11926 109.66023 179.61996Q109.42407 179.12064 109.2127 178.61035Q109.00133 178.10005 108.81525 177.58002Q108.62917 177.05995 108.46884 176.5314Q108.3085 176.00284 108.17429 175.46704Q108.04008 174.93124 107.93232 174.38953Q107.82457 173.84779 107.74352 173.30142Q107.66248 172.75507 107.60835 172.20538Q107.5542 171.6557 107.5271 171.10403Q107.5 170.55234 107.5 170L107.5 130Q107.5 129.44766 107.5271 128.89598Q107.5542 128.3443 107.60835 127.79462Q107.66248 127.24493 107.74353 126.69856Q107.82457 126.15219 107.93232 125.61046Q108.04008 125.06873 108.17429 124.53294Q108.3085 123.99715 108.46884 123.46859Q108.62917 122.94003 108.81525 122.41997Q109.00133 121.89991 109.2127 121.38961Q109.42407 120.87932 109.66023 120.38Q109.89639 119.88069 110.15676 119.39357Q110.41713 118.90644 110.70109 118.43268Q110.98505 117.95892 111.29192 117.49966Q111.59879 117.04041 111.92781 116.59676Q112.25685 116.15311 112.60726 115.72614Q112.95766 115.29918 113.32859 114.88992Q113.69952 114.48065 114.09009 114.09009Q114.48065 113.69952 114.88991 113.3286Q115.29918 112.95767 115.72614 112.60727Q116.15311 112.25686 116.59675 111.92782Q117.04039 111.59879 117.49965 111.29192Q117.95891 110.98505 118.43268 110.7011Q118.90643 110.41714 119.39356 110.15677Q119.88069 109.89639 120.38 109.66023Q120.87932 109.42407 121.38961 109.2127Q121.89991 109.00133 122.41997 108.81525Q122.94003 108.62917 123.4686 108.46885Q123.99715 108.3085 124.53294 108.1743Q125.06873 108.04008 125.61046 107.93233Q126.15219 107.82458 126.69855 107.74353Q127.24492 107.66249 127.79461 107.60835Q128.3443 107.55421 128.89597 107.52711Q129.44766 107.5 130 107.5L150 107.5Z"/>
	<path fill="none" stroke="#FF8A8A" stroke-width="2.5" stroke-linecap="round" stroke-linejoin="round" transform="matrix(-0.707107 0.707107 -0.707107 -0.707107 362.132 150)" d="M150 117.5L165 117.5Q165.4296 117.5 165.85867 117.52107Q166.28777 117.54216 166.7153 117.58427Q167.14282 117.62637 167.56778 117.68941Q167.99272 117.75244 168.41406 117.83625Q168.83542 117.92006 169.25215 118.02445Q169.66888 118.12883 170.07999 118.25354Q170.49109 118.37823 170.89557 118.52296Q171.30005 118.66769 171.69693 118.83209Q172.09384 118.99649 172.48219 119.18018Q172.87054 119.36385 173.24944 119.56637Q173.6283 119.76888 173.99678 119.98973Q174.36525 120.21059 174.72246 120.44926Q175.07965 120.68794 175.42473 120.94386Q175.76978 121.19977 176.10187 121.47231Q176.43396 121.74484 176.75227 122.03335Q177.07059 122.32185 177.37436 122.62562Q177.67813 122.9294 177.96663 123.24771Q178.25514 123.56602 178.52769 123.89811Q178.80022 124.23019 179.05612 124.57525Q179.31204 124.9203 179.5507 125.2775Q179.78938 125.6347 180.01025 126.00319Q180.23111 126.37167 180.43362 126.75055Q180.63614 127.12943 180.81981 127.51778Q181.00348 127.90613 181.16788 128.30302Q181.33228 128.69992 181.47702 129.10442Q181.62175 129.50891 181.74646 129.92001Q181.87115 130.33112 181.97554 130.74783Q182.07991 131.16455 182.16373 131.58591Q182.24754 132.00726 182.31058 132.43222Q182.37363 132.85716 182.41574 133.2847Q182.45784 133.71223 182.47891 134.14131Q182.5 134.5704 182.5 135L182.5 165Q182.5 165.4296 182.47891 165.85867Q182.45784 166.28777 182.41574 166.7153Q182.37363 167.14282 182.31059 167.56778Q182.24754 167.99272 182.16373 168.41406Q182.07991 168.83542 181.97552 169.25215Q181.87115 169.66888 181.74646 170.07999Q181.62175 170.49109 181.47701 170.89557Q181.33228 171.30005 181.16788 171.69693Q181.00348 172.09384 180.81981 172.48219Q180.63614 172.87054 180.43362 173.24944Q180.23111 173.6283 180.01025 173.99678Q179.78938 174.36525 179.5507 174.72246Q179.31204 175.07965 179.05612 175.42473Q178.8002 175.76978 178.52768 176.10187Q178.25513 176.43396 177.96663 176.75227Q177.67813 177.07059 177.37436 177.37436Q177.07059 177.67813 176.75227 177.96663Q176.43396 178.25514 176.10188 178.52769Q175.76979 178.80022 175.42473 179.05612Q175.07965 179.31204 174.72246 179.5507Q174.36525 179.78938 173.99677 180.01025Q173.6283 180.23111 173.24944 180.43362Q172.87056 180.63614 172.48221 180.81981Q172.09384 181.00348 171.69695 181.16788Q171.30005 181.33228 170.89557 181.47702Q170.49109 181.62175 170.07999 181.74646Q169.66888 181.87115 169.25215 181.97554Q168.83542 182.07991 168.41408 182.16373Q167.99274 182.24754 167.56778 182.31058Q167.14284 182.37363 166.7153 182.41574Q166.28777 182.45784 165.85867 182.47891Q165.4296 182.5 165 182.5L135 182.5Q134.5704 182.5 134.14133 182.47891Q133.71223 182.45784 133.2847 182.41574Q132.85716 182.37363 132.43221 182.31059Q132.00726 182.24754 131.58591 182.16373Q131.16455 182.07991 130.74783 181.97552Q130.3311 181.87115 129.92 181.74646Q129.5089 181.62175 129.1044 181.47701Q128.69992 181.33228 128.30302 181.16788Q127.90613 181.00348 127.51778 180.81981Q127.12943 180.63614 126.75056 180.43362Q126.37167 180.23111 126.0032 180.01025Q125.6347 179.78938 125.2775 179.5507Q124.9203 179.31204 124.57526 179.05612Q124.23019 178.8002 123.89812 178.52768Q123.56603 178.25513 123.24772 177.96663Q122.92941 177.67813 122.62563 177.37436Q122.32185 177.07059 122.03336 176.75227Q121.74485 176.43396 121.47232 176.10188Q121.19978 175.76979 120.94386 175.42473Q120.68794 175.07965 120.44927 174.72246Q120.21059 174.36525 119.98974 173.99677Q119.76888 173.6283 119.56637 173.24944Q119.36385 172.87056 119.18018 172.48221Q118.9965 172.09384 118.8321 171.69695Q118.66769 171.30005 118.52297 170.89557Q118.37824 170.49109 118.25354 170.07999Q118.12883 169.66888 118.02444 169.25215Q117.92006 168.83542 117.83624 168.41408Q117.75243 167.99274 117.6894 167.56778Q117.62637 167.14284 117.58426 166.7153Q117.54214 166.28777 117.52107 165.85867Q117.5 165.4296 117.5 165L117.5 135Q117.5 134.5704 117.52107 134.14133Q117.54216 133.71223 117.58427 133.2847Q117.62637 132.85716 117.68941 132.43221Q117.75244 132.00726 117.83625 131.58591Q117.92006 131.16455 118.02445 130.74783Q118.12883 130.3311 118.25354 129.92Q118.37823 129.5089 118.52296 129.1044Q118.66769 128.69992 118.83209 128.30302Q118.99649 127.90613 119.18018 127.51778Q119.36385 127.12943 119.56637 126.75056Q119.76888 126.37167 119.98973 126.0032Q120.21059 125.6347 120.44926 125.2775Q120.68794 124.9203 120.94386 124.57526Q121.19977 124.23019 121.47231 123.89812Q121.74484 123.56603 122.03335 123.24772Q122.32185 122.92941 122.62562 122.62563Q122.9294 122.32185 123.24771 122.03336Q123.56602 121.74485 123.89811 121.47232Q124.23019 121.19978 124.57525 120.94386Q124.9203 120.68794 125.2775 120.44927Q125.6347 120.21059 126.00319 119.98974Q126.37167 119.76888 126.75055 119.56637Q127.12943 119.36385 127.51778 119.18018Q127.90613 118.9965 128.30302 118.8321Q128.69992 118.6677 129.10442 118.52297Q129.50891 118.37825 129.92001 118.25355Q130.33112 118.12884 130.74783 118.02445Q131.16455 117.92007 131.58591 117.83626Q132.00726 117.75244 132.43222 117.68941Q132.85716 117.62637 133.2847 117.58427Q133.71223 117.54216 134.14131 117.52107Q134.5704 117.5 135 117.5L150 117.5Z"/>
	<path fill="none" stroke="#FF8A8A" stroke-width="2.5" stroke-linecap="round" stroke-linejoin="round" transform="matrix(-0.866025 0.5 -0.5 -0.866025 354.904 204.904)" d="M150 127.5L160 127.5Q160.30685 127.5 160.61336 127.51506Q160.91983 127.53012 161.22522 127.5602Q161.53059 127.59027 161.83412 127.6353Q162.13766 127.68032 162.43863 127.74019Q162.73959 127.80005 163.03726 127.87462Q163.33492 127.94918 163.62856 128.03825Q163.92218 128.12732 164.21111 128.2307Q164.50003 128.33408 164.78352 128.45151Q165.06702 128.56894 165.34442 128.70013Q165.62183 128.83133 165.89246 128.97598Q166.16307 129.12064 166.42627 129.2784Q166.68947 129.43616 166.94461 129.60663Q167.19974 129.77711 167.44623 129.95992Q167.69269 130.1427 167.9299 130.33737Q168.16711 130.53204 168.39447 130.73813Q168.62184 130.94418 168.83882 131.16116Q169.05582 131.37814 169.26187 131.60551Q169.46796 131.83289 169.66263 132.07008Q169.8573 132.30728 170.04008 132.55376Q170.22287 132.80023 170.39336 133.05537Q170.56384 133.31052 170.72159 133.57373Q170.87936 133.83691 171.02402 134.10754Q171.16866 134.37816 171.29985 134.65555Q171.43105 134.93295 171.54848 135.21645Q171.66591 135.49994 171.76929 135.78886Q171.87267 136.07779 171.96175 136.37144Q172.05081 136.6651 172.12538 136.96275Q172.19994 137.26041 172.2598 137.56137Q172.31967 137.86234 172.36472 138.16586Q172.40973 138.46942 172.43982 138.7748Q172.46989 139.08017 172.48494 139.38666Q172.5 139.69315 172.5 140L172.5 160Q172.5 160.30685 172.48495 160.61336Q172.46989 160.91983 172.43982 161.22522Q172.40974 161.53059 172.36472 161.83412Q172.31969 162.13766 172.25981 162.43863Q172.19995 162.73959 172.12538 163.03726Q172.05083 163.33492 171.96176 163.62856Q171.87268 163.92218 171.76929 164.21111Q171.66591 164.50003 171.54848 164.78352Q171.43105 165.06702 171.29985 165.34442Q171.16866 165.62183 171.02402 165.89246Q170.87936 166.16307 170.7216 166.42627Q170.56384 166.68947 170.39336 166.94461Q170.22287 167.19974 170.04008 167.44623Q169.8573 167.69269 169.66263 167.9299Q169.46796 168.16711 169.26189 168.39447Q169.05582 168.62184 168.83882 168.83882Q168.62184 169.05582 168.39447 169.26187Q168.16711 169.46796 167.9299 169.66263Q167.69269 169.8573 167.44621 170.04008Q167.19974 170.22287 166.94461 170.39336Q166.68947 170.56384 166.42627 170.72159Q166.16307 170.87936 165.89246 171.02402Q165.62183 171.16866 165.34442 171.29985Q165.06702 171.43105 164.78352 171.54848Q164.50003 171.66591 164.21111 171.76929Q163.92218 171.87267 163.62856 171.96175Q163.33492 172.05081 163.03725 172.12538Q162.73959 172.19994 162.43863 172.2598Q162.13766 172.31967 161.83414 172.36472Q161.53059 172.40973 161.22522 172.43982Q160.91983 172.46988 160.61336 172.48494Q160.30685 172.5 160 172.5L140 172.5Q139.69315 172.5 139.38666 172.48492Q139.08017 172.46988 138.7748 172.43982Q138.46942 172.40974 138.16588 172.36472Q137.86234 172.31969 137.56137 172.25981Q137.26041 172.19995 136.96275 172.12538Q136.6651 172.05083 136.37144 171.96176Q136.07779 171.87268 135.78886 171.76929Q135.49994 171.66591 135.21645 171.54848Q134.93295 171.43105 134.65555 171.29985Q134.37816 171.16866 134.10754 171.02402Q133.83691 170.87936 133.57372 170.7216Q133.31052 170.56384 133.05536 170.39336Q132.80022 170.22287 132.55374 170.04008Q132.30728 169.8573 132.07008 169.66263Q131.83289 169.46796 131.6055 169.26189Q131.37814 169.05582 131.16116 168.83882Q130.94418 168.62184 130.73811 168.39447Q130.53204 168.16711 130.33737 167.9299Q130.1427 167.69269 129.9599 167.44621Q129.77711 167.19974 129.60663 166.94461Q129.43616 166.68947 129.2784 166.42627Q129.12064 166.16307 128.97598 165.89246Q128.83133 165.62183 128.70012 165.34442Q128.56891 165.06702 128.45149 164.78352Q128.33406 164.50003 128.23068 164.21111Q128.12732 163.92218 128.03824 163.62856Q127.94917 163.33492 127.8746 163.03725Q127.80003 162.73959 127.74017 162.43863Q127.68031 162.13766 127.63528 161.83414Q127.59027 161.53059 127.5602 161.22522Q127.53011 160.91983 127.51506 160.61336Q127.5 160.30685 127.5 160L127.5 140Q127.5 139.69315 127.51505 139.38666Q127.53011 139.08017 127.5602 138.7748Q127.59027 138.46942 127.63528 138.16588Q127.68031 137.86234 127.74018 137.56137Q127.80004 137.26041 127.8746 136.96275Q127.94917 136.6651 128.03824 136.37144Q128.12732 136.07779 128.23068 135.78886Q128.33406 135.49994 128.45149 135.21645Q128.56891 134.93295 128.70012 134.65555Q128.83133 134.37816 128.97598 134.10754Q129.12064 133.83691 129.2784 133.57372Q129.43616 133.31052 129.60663 133.05536Q129.77711 132.80022 129.95992 132.55374Q130.1427 132.30728 130.33737 132.07008Q130.53204 131.83289 130.73813 131.6055Q130.94418 131.37814 131.16116 131.16116Q131.37814 130.94418 131.60551 130.73811Q131.83289 130.53204 132.07008 130.33737Q132.30728 130.1427 132.55376 129.9599Q132.80023 129.77711 133.05537 129.60663Q133.31052 129.43616 133.57373 129.2784Q133.83691 129.12064 134.10754 128.97598Q134.37816 128.83133 134.65555 128.70013Q134.93295 128.56894 135.21645 128.45151Q135.49994 128.33408 135.78886 128.2307Q136.07779 128.12732 136.37144 128.03825Q136.6651 127.94918 136.96275 127.87462Q137.26041 127.80005 137.56137 127.74019Q137.86234 127.68032 138.16586 127.63529Q138.46942 127.59027 138.7748 127.5602Q139.08017 127.53011 139.38666 127.51506Q139.69315 127.5 140 127.5L150 127.5Z"/>
	<path fill="none" stroke="#FF8A8A" stroke-width="2.5" stroke-linecap="round" stroke-linejoin="round" transform="matrix(-0.965926 0.258819 -0.258819 -0.965926 333.712 256.066)" d="M150 137.5L155 137.5Q155.18411 137.5 155.36801 137.50903Q155.55191 137.51807 155.73514 137.53612Q155.91837 137.55417 156.10048 137.58118Q156.28259 137.60818 156.46317 137.6441Q156.64374 137.68002 156.82234 137.72476Q157.00095 137.7695 157.17714 137.82294Q157.35332 137.87637 157.52667 137.93842Q157.70001 138.00043 157.87012 138.07089Q158.04022 138.14136 158.20665 138.22008Q158.37308 138.2988 158.53546 138.38559Q158.69785 138.47237 158.85574 138.56702Q159.01367 138.66167 159.16675 138.76396Q159.31982 138.86624 159.46771 138.97594Q159.6156 139.0856 159.75793 139.20242Q159.90025 139.31921 160.03668 139.44286Q160.1731 139.5665 160.30328 139.69669Q160.43347 139.82687 160.55711 139.96329Q160.68076 140.0997 160.79756 140.24203Q160.91437 140.38435 161.02405 140.53224Q161.13371 140.68011 161.23599 140.83321Q161.33829 140.9863 161.43295 141.14421Q161.5276 141.30212 161.6144 141.46451Q161.70119 141.62689 161.77991 141.79332Q161.85861 141.95975 161.92908 142.12985Q161.99954 142.29996 162.06157 142.47331Q162.1236 142.64667 162.17705 142.82286Q162.23048 142.99904 162.27522 143.17763Q162.31995 143.35623 162.35588 143.5368Q162.3918 143.71739 162.41882 143.89952Q162.44583 144.08163 162.4639 144.26488Q162.48193 144.4481 162.49097 144.63199Q162.5 144.81589 162.5 145L162.5 155Q162.5 155.18411 162.49097 155.36801Q162.48193 155.55191 162.4639 155.73514Q162.44583 155.91837 162.41882 156.10048Q162.3918 156.28259 162.35588 156.46317Q162.31995 156.64374 162.27522 156.82234Q162.23048 157.00095 162.17705 157.17714Q162.1236 157.35332 162.06157 157.52667Q161.99954 157.70001 161.92908 157.87012Q161.85861 158.04022 161.77991 158.20665Q161.70119 158.37308 161.6144 158.53546Q161.5276 158.69785 161.43295 158.85574Q161.33829 159.01367 161.23599 159.16675Q161.13371 159.31982 161.02403 159.46771Q160.91437 159.6156 160.79756 159.75793Q160.68076 159.90025 160.55711 160.03668Q160.43347 160.1731 160.30328 160.30328Q160.1731 160.43347 160.03667 160.55711Q159.90025 160.68076 159.75793 160.79756Q159.6156 160.91437 159.46771 161.02405Q159.31982 161.13371 159.16675 161.23599Q159.01367 161.33829 158.85576 161.43295Q158.69785 161.5276 158.53546 161.6144Q158.37308 161.70119 158.20663 161.77991Q158.04019 161.85861 157.8701 161.92908Q157.70001 161.99954 157.52666 162.06157Q157.3533 162.1236 157.17712 162.17705Q157.00095 162.23048 156.82234 162.27522Q156.64374 162.31995 156.46317 162.35588Q156.28259 162.3918 156.10048 162.41882Q155.91837 162.44583 155.73514 162.4639Q155.55191 162.48193 155.36801 162.49097Q155.18411 162.5 155 162.5L145 162.5Q144.81589 162.5 144.63199 162.49097Q144.4481 162.48193 144.26488 162.4639Q144.08163 162.44583 143.89952 162.41882Q143.71741 162.3918 143.53682 162.35588Q143.35623 162.31995 143.17764 162.27522Q142.99904 162.23048 142.82286 162.17705Q142.64667 162.1236 142.47331 162.06157Q142.29996 161.99954 142.12985 161.92908Q141.95975 161.85861 141.79332 161.77991Q141.62689 161.70119 141.46451 161.6144Q141.30212 161.5276 141.14421 161.43295Q140.9863 161.33829 140.83321 161.23599Q140.68011 161.13371 140.53224 161.02403Q140.38435 160.91437 140.24203 160.79756Q140.0997 160.68076 139.96329 160.55711Q139.82687 160.43347 139.69669 160.30328Q139.5665 160.1731 139.44286 160.03667Q139.31921 159.90025 139.20242 159.75793Q139.0856 159.6156 138.97594 159.46771Q138.86624 159.31982 138.76396 159.16675Q138.66167 159.01367 138.56702 158.85576Q138.47237 158.69785 138.38559 158.53546Q138.2988 158.37308 138.22008 158.20663Q138.14136 158.04019 138.07089 157.8701Q138.00043 157.70001 137.93842 157.52666Q137.87639 157.3533 137.82295 157.17712Q137.7695 157.00095 137.72476 156.82234Q137.68002 156.64374 137.6441 156.46317Q137.60818 156.28259 137.58118 156.10048Q137.55417 155.91837 137.53612 155.73514Q137.51807 155.55191 137.50903 155.36801Q137.5 155.18411 137.5 155L137.5 145Q137.5 144.81589 137.50903 144.63199Q137.51807 144.4481 137.53612 144.26488Q137.55417 144.08163 137.58118 143.89952Q137.60818 143.71741 137.6441 143.53682Q137.68002 143.35623 137.72476 143.17764Q137.7695 142.99904 137.82294 142.82286Q137.87637 142.64667 137.93842 142.47331Q138.00043 142.29996 138.07089 142.12985Q138.14136 141.95975 138.22008 141.79332Q138.2988 141.62689 138.38559 141.46451Q138.47237 141.30212 138.56702 141.14421Q138.66167 140.9863 138.76396 140.83321Q138.86624 140.68011 138.97594 140.53224Q139.0856 140.38435 139.20242 140.24203Q139.31921 140.0997 139.44286 139.96329Q139.5665 139.82687 139.69669 139.69669Q139.82687 139.5665 139.96329 139.44286Q140.0997 139.31921 140.24203 139.20242Q140.38435 139.0856 140.53224 138.97594Q140.68011 138.86624 140.83321 138.76396Q140.9863 138.66167 141.14421 138.56702Q141.30212 138.47237 141.46451 138.38559Q141.62689 138.2988 141.79332 138.22008Q141.95975 138.14136 142.12985 138.07089Q142.29996 138.00043 142.47331 137.93842Q142.64667 137.87639 142.82286 137.82295Q142.99904 137.7695 143.17763 137.72476Q143.35623 137.68002 143.5368 137.6441Q143.71739 137.60818 143.89952 137.58118Q144.08163 137.55417 144.26488 137.53612Q144.4481 137.51807 144.63199 137.50903Q144.81589 137.5 145 137.5L150 137.5Z"/>
</svg>